<svg xmlns="http://www.w3.org/2000/svg" enable-background="new 0 0 512 512" viewBox="0 0 512 512" id="actively-recruiting"><circle cx="256" cy="256" r="240" fill="#e0e6e9"></circle><circle cx="256" cy="256" r="30" fill="#08c07a"></circle><path fill="#c2ced4" d="M256,511C115.068,511,1,396.951,1,256C1,115.068,115.049,1,256,1c140.932,0,255,114.049,255,255
				C511,396.932,396.951,511,256,511z M256,31C131.935,31,31,131.935,31,256s100.935,225,225,225s225-100.935,225-225
				S380.065,31,256,31z"></path><path fill="#68aef9" d="M256,421c-90.964,0-165-73.699-165-165c0-90.981,74.019-165,165-165
				c44.077,0,85.511,17.166,116.668,48.336c5.857,5.859,5.855,15.356-0.004,21.213c-5.859,5.857-15.357,5.855-21.213-0.004
				C325.96,135.044,292.062,121,256,121c-74.439,0-135,60.561-135,135c0,75.807,61.315,135,135,135c74.439,0,135-60.561,135-135
				c0-17.416-3.262-34.345-9.694-50.315c-3.095-7.685,0.626-16.423,8.31-19.519c7.686-3.096,16.423,0.625,19.519,8.31
				C417.008,214.025,421,234.726,421,256C421,346.981,346.981,421,256,421z"></path><path fill="#fd3f2e" d="M256,361c-57.897,0-105-47.103-105-105s47.103-105,105-105s105,47.103,105,105
				S313.897,361,256,361z M256,181c-41.355,0-75,33.645-75,75s33.645,75,75,75s75-33.645,75-75S297.355,181,256,181z"></path><path fill="#525a67" d="M266.604,245.396c-5.858-5.857-5.858-15.355,0-21.213l98.79-98.79
				c5.857-5.857,15.355-5.857,21.213,0c5.858,5.857,5.858,15.355,0,21.213l-98.79,98.79
				C281.958,251.255,272.461,251.254,266.604,245.396z"></path><path fill="#03e48c" d="M256,301c-24.813,0-45-20.187-45-45s20.187-45,45-45s45,20.187,45,45S280.813,301,256,301z
				 M256,241c-8.271,0-15,6.729-15,15s6.729,15,15,15s15-6.729,15-15S264.271,241,256,241z"></path></svg>