<svg xmlns="http://www.w3.org/2000/svg" viewBox="0 0 32 32" id="cloud-search"><path fill="#a7d9fc" d="M27.38 27.42a2 2 0 0 1-2.83 0L23.08 26a1 1 0 0 1-.29-.7 1 1 0 0 1 .29-.71l1.46-1.46a1 1 0 0 1 .71-.29 1 1 0 0 1 .7.29l1.47 1.47A2 2 0 0 1 27.38 27.42zM15.44 12.14a1 1 0 0 0 1 .67l.15 0a1.41 1.41 0 0 1 0 2.81H9.39a1.41 1.41 0 0 1 0-2.81l.12 0a1 1 0 0 0 1-.67 2.58 2.58 0 0 1 4.89 0z"></path><path fill="#4473b7" d="M16.6,15.6a1.41,1.41,0,0,0,0-2.81l-.15,0a1,1,0,0,1-1-.67,2.58,2.58,0,0,0-4.89,0,1,1,0,0,1-1,.67l-.12,0a1.41,1.41,0,0,0,0,2.81ZM17,10.82a3.4,3.4,0,0,1-.44,6.78H9.39A3.4,3.4,0,0,1,9,10.82a4.58,4.58,0,0,1,8.09,0Z"></path><path fill="#4473b7" d="M28.83,23.13l-1.47-1.47a3,3,0,0,0-4.24,0l0,0-2.33-2.33a1,1,0,0,0-1.41,0l0,0,0,0a9,9,0,1,1,2.29-3.73,1,1,0,0,0,1.91.6A11,11,0,1,0,20,21.44l1.66,1.66,0,0a3,3,0,0,0,0,4.24l1.47,1.47A4,4,0,0,0,26,30a4,4,0,0,0,2.87-1.22,4,4,0,0,0,0-5.66Zm-1.46,4.29a2,2,0,0,1-2.83,0L23.08,26a1,1,0,0,1,0-1.41l1.46-1.46a1,1,0,0,1,1.41,0l1.47,1.47A2,2,0,0,1,28,26,2,2,0,0,1,27.38,27.42Z"></path></svg>