<svg xmlns="http://www.w3.org/2000/svg" viewBox="0 0 834.54 576.36"><defs><style>.cls-1{fill:#f4e9df;}.cls-2{fill:#23aa53;}.cls-3{fill:#2847d4;}.cls-4{fill:#1a2241;}.cls-5{fill:#965e04;}.cls-6{fill:#765202;}.cls-7{fill:#e66e6e;}.cls-8{fill:#f7f8ff;}.cls-28,.cls-9{fill:#fff;}.cls-10{fill:#d0ddf6;}.cls-11{fill:#3a6df3;}.cls-12{fill:#1d5aba;}.cls-13{fill:#ff867f;}.cls-14,.cls-24{fill:#ffa89e;}.cls-15{fill:#facf47;}.cls-16{fill:#0c2d60;}.cls-17{fill:#071d3f;}.cls-18{fill:#7d92ec;}.cls-19{fill:#cb6161;}.cls-20{fill:#020716;}.cls-21{fill:#eab340;}.cls-22{fill:#edb341;}.cls-23{fill:#3f2d05;}.cls-24{opacity:0.52;}.cls-24,.cls-28{isolation:isolate;}.cls-25{fill:#1a2e35;}.cls-26{fill:#2945bd;}.cls-27{fill:#3580f7;}.cls-28,.cls-30{opacity:0.19;}.cls-29{fill:#5fc37a;}.cls-31{fill:#1d8d80;}.cls-32{fill:#64d6bc;}.cls-33{fill:#a34d42;}.cls-34{fill:#f76559;}.cls-35{fill:#cc423b;}</style></defs><title>HR Consultancy</title><g id="Layer_2" data-name="Layer 2"><g id="Layer_1-2" data-name="Layer 1"><path id="Path_442" data-name="Path 442" class="cls-1" d="M62.19,64.78c91.52-91.11,310.49-68.5,561.12-34.59S833.75,289.94,829.92,307.28,633.35,668.41,284,552.56-29.33,155.89,62.19,64.78Z"/><g id="Group_266" data-name="Group 266"><g id="Group_30" data-name="Group 30"><path id="Path_295" data-name="Path 295" class="cls-2" d="M504.87,270.76h-262a3.58,3.58,0,0,1,0-7.16H504.87a3.58,3.58,0,1,1,0,7.16Z"/><g id="Group_28" data-name="Group 28"><path id="Path_296" data-name="Path 296" class="cls-3" d="M684,398.27H459.24a3.58,3.58,0,0,1,0-7.16H684a3.58,3.58,0,0,1,0,7.16Z"/></g><g id="Group_29" data-name="Group 29"><path id="Path_297" data-name="Path 297" class="cls-3" d="M543.38,491.38H243.91a3.58,3.58,0,0,1,0-7.16H543.38a3.58,3.58,0,0,1,0,7.16Z"/></g></g><g id="Man"><g id="Man-2"><g id="Face_2" data-name="Face 2"><g id="Group_69" data-name="Group 69"><g id="Group_32" data-name="Group 32"><g id="Group_31" data-name="Group 31"><path id="Path_298" data-name="Path 298" class="cls-4" d="M561,224.7a14.69,14.69,0,0,0-10.63-1.13c-4.66,1.28-12.62,1.55-19.51-7.7-10.5-14.1.55-21.28,2.76-23.49s1.66-7.74,16-7.74c13.22,0,23.17.94,31.13,10.12a14.84,14.84,0,0,0,4.63,3.66c3.14,1.55,8.17,4.94,9.3,11.1,1.66,9.12,2.21,26.81-9.12,31,0,0-7.47,3.17-11.34.13C571.19,238.2,569.55,229.13,561,224.7Z"/></g></g><g id="Group_34" data-name="Group 34"><g id="Group_33" data-name="Group 33"><path id="Path_299" data-name="Path 299" class="cls-5" d="M579.88,235.29c.65,4.4,3.42,22.18,6.3,29.42a1.14,1.14,0,0,1-.08,1c-1.69,2.73-11,15.73-31.16,10a1.11,1.11,0,0,1-.81-1,164.67,164.67,0,0,1-.32-24.43c.72-13.81,20.14-15.7,24.88-15.95A1.14,1.14,0,0,1,579.88,235.29Z"/></g></g><g id="Group_36" data-name="Group 36"><g id="Group_35" data-name="Group 35"><path id="Path_300" data-name="Path 300" class="cls-6" d="M557.4,192.93s-20.17-1.38-20.17,24,6.9,40.35,15.75,40.63c7.07.22,13.88-5.5,17.84-10.8C583,230.56,583.66,194.73,557.4,192.93Z"/></g></g><g id="Group_38" data-name="Group 38"><g id="Group_37" data-name="Group 37"><path id="Path_301" data-name="Path 301" class="cls-4" d="M532.8,214.77s24.6,5.25,39.8-1.38c0,0-3.59,11.05-.27,16.58,0,0,9.67-14.1,13.54-12.16s-.48-28.32-22.94-29C545.24,188.24,532.8,192.11,532.8,214.77Z"/></g></g><g id="Group_40" data-name="Group 40"><g id="Group_39" data-name="Group 39"><path id="Path_302" data-name="Path 302" class="cls-4" d="M542.77,227.93a1.63,1.63,0,1,1-1.62-1.62,1.62,1.62,0,0,1,1.62,1.62Z"/></g></g><g id="Group_42" data-name="Group 42"><g id="Group_41" data-name="Group 41"><path id="Path_303" data-name="Path 303" class="cls-4" d="M562.34,227.93a1.62,1.62,0,1,1-1.62-1.62,1.62,1.62,0,0,1,1.62,1.62Z"/></g></g><g id="Group_44" data-name="Group 44"><g id="Group_43" data-name="Group 43"><path id="Path_304" data-name="Path 304" class="cls-4" d="M544.69,224.78a1,1,0,0,1-.54-.16c-1.79-1.12-4.68-.31-4.7-.3a1,1,0,0,1-.57-2c.15-.05,3.78-1.08,6.35.53a1,1,0,0,1,.33,1.41,1,1,0,0,1-.87.48Z"/></g></g><g id="Group_46" data-name="Group 46"><g id="Group_45" data-name="Group 45"><path id="Path_305" data-name="Path 305" class="cls-4" d="M565,225.47a1,1,0,0,1-.62-.22,6.44,6.44,0,0,0-5.67-.92,1,1,0,0,1-.68-1.93,8.48,8.48,0,0,1,7.6,1.23,1,1,0,0,1,.19,1.44,1,1,0,0,1-.81.4Z"/></g></g><g id="Group_48" data-name="Group 48"><g id="Group_47" data-name="Group 47"><path id="Path_306" data-name="Path 306" class="cls-7" d="M549.66,239.19a.53.53,0,0,1-.39-.18c-1.49-1.78-2-3.29-1.5-4.49.78-1.87,3.66-2.14,3.78-2.16a.51.51,0,0,1,.55.47.5.5,0,0,1-.46.55c-.66.06-2.48.45-2.93,1.53-.33.81.13,2,1.34,3.44a.52.52,0,0,1-.06.72.5.5,0,0,1-.33.12Z"/></g></g><g id="Group_50" data-name="Group 50"><g id="Group_49" data-name="Group 49"><path id="Path_307" data-name="Path 307" class="cls-7" d="M547.07,242.58c1.93,0,6.28-.07,9.4-1.46a.81.81,0,0,1,1.09,1c-.81,2-2.42,4.74-5.27,5.52-4.22,1.15-6.55.05-6.32-4.06A1.08,1.08,0,0,1,547.07,242.58Z"/></g></g><g id="Group_52" data-name="Group 52"><g id="Group_51" data-name="Group 51"><path id="Path_308" data-name="Path 308" class="cls-6" d="M561.82,240.75c-2.39,10.14-3.73,14.23-6.82,16.75,6.33-.78,12.24-5.9,15.82-10.69,5.07-6.8,8.61-13.75,8.56-23.47C579.38,223.34,566,223.2,561.82,240.75Z"/></g></g><g id="Group_61" data-name="Group 61"><g id="Group_54" data-name="Group 54"><g id="Group_53" data-name="Group 53"><path id="Path_309" data-name="Path 309" class="cls-8" d="M541.17,236.48A8.79,8.79,0,1,1,550,227.7h0A8.8,8.8,0,0,1,541.17,236.48Zm0-16a7.25,7.25,0,1,0,7.24,7.25,7.24,7.24,0,0,0-7.24-7.25Z"/></g></g><g id="Group_56" data-name="Group 56"><g id="Group_55" data-name="Group 55"><path id="Path_310" data-name="Path 310" class="cls-8" d="M554.43,227H549a.77.77,0,0,1,0-1.54h5.44a.77.77,0,0,1,0,1.54Z"/></g></g><g id="Group_58" data-name="Group 58"><g id="Group_57" data-name="Group 57"><path id="Path_311" data-name="Path 311" class="cls-8" d="M570.69,226.35a.76.76,0,0,1-.77-.76.75.75,0,0,1,.71-.77l5.25-.42a.77.77,0,0,1,.14,1.53h0l-5.25.42Z"/></g></g><g id="Group_60" data-name="Group 60"><g id="Group_59" data-name="Group 59"><path id="Path_312" data-name="Path 312" class="cls-8" d="M562.45,235.37a8.79,8.79,0,1,1,8.78-8.79h0A8.8,8.8,0,0,1,562.45,235.37Zm0-16a7.25,7.25,0,1,0,7.24,7.25A7.24,7.24,0,0,0,562.45,219.34Z"/></g></g></g><g id="Group_63" data-name="Group 63"><g id="Group_62" data-name="Group 62"><path id="Path_313" data-name="Path 313" class="cls-9" d="M555.88,258.53a.51.51,0,0,1-.52-.5.52.52,0,0,1,.5-.52c.59,0,14.34-.76,18.88-17.45a.51.51,0,1,1,1,.27h0C573.25,249.43,568,253.9,564,256a20.33,20.33,0,0,1-8.14,2.5Z"/></g></g><g id="Group_68" data-name="Group 68"><g id="Group_65" data-name="Group 65"><g id="Group_64" data-name="Group 64"><path id="Path_314" data-name="Path 314" class="cls-5" d="M582.91,229.89c-.73,4-3.71,6.85-6.65,6.32s-4.73-4.23-4-8.25,3.71-6.85,6.65-6.31S583.64,225.87,582.91,229.89Z"/></g></g><g id="Group_67" data-name="Group 67"><g id="Group_66" data-name="Group 66"><path id="Path_315" data-name="Path 315" class="cls-5" d="M577.58,232.31a.38.38,0,0,1-.38-.39.39.39,0,0,1,.06-.21c1.74-2.51,1.81-4,1.57-4.84a2,2,0,0,0-1-1.22.39.39,0,0,1-.2-.5.38.38,0,0,1,.5-.21,2.69,2.69,0,0,1,1.42,1.71c.42,1.43-.14,3.28-1.67,5.5A.39.39,0,0,1,577.58,232.31Z"/></g></g></g></g><g id="Group_71" data-name="Group 71"><g id="Group_70" data-name="Group 70"><rect id="Rectangle_15" data-name="Rectangle 15" class="cls-10" x="552.64" y="318.83" width="44.29" height="3.32" rx="1.34"/></g></g></g><g id="body"><g id="Group_73" data-name="Group 73"><g id="Group_72" data-name="Group 72"><path id="Path_316" data-name="Path 316" class="cls-11" d="M663,373s-9.13-24.33-43.12-18.52l6.9,36.75H518.16s-15.2-37.31-14.65-76.56c.22-16.05,1.38-43.11,29-46.43,6.6-.8,13.88-1.58,21.23-2.32,1.4,3.1,5.72,9.14,16.08,8.68,12.44-.55,14.79-6.67,16.17-11.54,10-.74,17.55-1.11,20-.9,6.35.55,31.5-1.38,41.73,34.27S662.16,353.66,663,373Z"/></g></g><g id="Group_75" data-name="Group 75"><g id="Group_74" data-name="Group 74"><path id="Path_317" data-name="Path 317" class="cls-12" d="M544.31,390c-2.17-8-13.06-49.7-14-80-.07-2.33,2.9-2.8,3.39-.53,4,18.5,10,36.4,24.64,48.33,10,8.2,44,12.58,48.92-14,3-16.19,2.25-29.58,8.49-44.63a1.67,1.67,0,0,1,3.24.33c3.25,14.52,13.7,64.88,8.11,90.18a1.79,1.79,0,0,1-1.68,1.49l-79.49.15A1.77,1.77,0,0,1,544.31,390Z"/></g></g><g id="Group_77" data-name="Group 77"><g id="Group_76" data-name="Group 76"><rect id="Rectangle_16" data-name="Rectangle 16" class="cls-10" x="552.64" y="303.9" width="44.29" height="3.32" rx="1.34"/></g></g><g id="Group_79" data-name="Group 79"><g id="Group_78" data-name="Group 78"><rect id="Rectangle_17" data-name="Rectangle 17" class="cls-10" x="552.64" y="311.47" width="44.29" height="3.32" rx="1.34"/></g></g><g id="Group_84" data-name="Group 84"><g id="Group_81" data-name="Group 81"><g id="Group_80" data-name="Group 80"><path id="Path_318" data-name="Path 318" class="cls-5" d="M635.53,353.06a31.16,31.16,0,0,0-6.13,1.17l-49,14.11-12,3.46c-2.81.81-7.82,3.19-10.56,2.14-3.8-1.46-6.76-3.37-11.06-3.76-5.79-.51-12.12,2.87-16.35,6.56-2.53,2.21-7,7.43-5.64,11.16,2.68,7.34,23.25,3.92,29.12,3.45a46.75,46.75,0,0,0,8.63-1.38c4.55-1.23,8-2.11,12.79-1.39a350.74,350.74,0,0,0,42.06,3.82c13.4.39,29,.89,41.5-4.68,0,0,8.5-6.22,1.87-20.11-2.62-5.48-7.63-9.58-13.06-12.11A23.58,23.58,0,0,0,635.53,353.06Z"/></g></g><g id="Group_83" data-name="Group 83"><g id="Group_82" data-name="Group 82"><path id="Path_319" data-name="Path 319" class="cls-6" d="M647.71,355.5c-3.93-1.82-8.91-3.43-13.61-2.47-.22,6.3,3.84,14.43,11.33,20.59,0,0,11.2,9.13-20.73,7.47s-45.65,1.72-49.36,7.5a355.07,355.07,0,0,0,42.07,3.82c13.4.38,29,.89,41.5-4.69,0,0,8.5-6.22,1.87-20.1C658.16,362.13,653.14,358,647.71,355.5Z"/></g></g></g></g></g></g><g id="women_2" data-name="women 2"><g id="women_2-2" data-name="women 2-2"><g id="Face"><g id="Group_85" data-name="Group 85"><path id="Path_320" data-name="Path 320" class="cls-13" d="M313.21,317.23s.52,32.11-3.62,41.24c0,0,20,4.9,29.09,2.33,0,0-.65-24.16,1.16-32.43C339.84,328.37,318.64,311,313.21,317.23Z"/></g><g id="Group_86" data-name="Group 86"><path id="Path_321" data-name="Path 321" class="cls-13" d="M352.8,300.69s7.73,10.4,6.74,12.63-4.72,1.71-4.72,1.71S352,302.12,352.8,300.69Z"/></g><g id="Group_87" data-name="Group 87"><path id="Path_322" data-name="Path 322" class="cls-14" d="M331.31,280.71A22.82,22.82,0,0,1,353.54,298c4.66,17.84-.51,40.6-12.15,42.15s-26.63-13.64-28.7-32.26c-.79-7.09-.78-15.38,4.46-21.13A18,18,0,0,1,331.31,280.71Z"/></g><g id="Group_88" data-name="Group 88"><path id="Path_323" data-name="Path 323" class="cls-4" d="M349.25,306.44a1.31,1.31,0,1,1-1.29-1.56A1.44,1.44,0,0,1,349.25,306.44Z"/></g><g id="Group_89" data-name="Group 89"><path id="Path_324" data-name="Path 324" class="cls-7" d="M348.89,328.21h-.11c-3.46-.77-5.84-2.22-7.1-4.31a6.67,6.67,0,0,1-.78-4.86.51.51,0,0,1,1,.28h0a5.69,5.69,0,0,0,.69,4.07c1.1,1.84,3.27,3.12,6.43,3.82a.51.51,0,0,1,.38.62.49.49,0,0,1-.49.39Z"/></g><g id="Group_90" data-name="Group 90"><path id="Path_325" data-name="Path 325" class="cls-4" d="M344.82,303.78a.51.51,0,0,1-.51-.51.59.59,0,0,1,.05-.23,4.32,4.32,0,0,1,2.86-2.46c2.56-.6,5.29,1.42,5.4,1.51a.51.51,0,1,1-.61.82h0s-2.47-1.82-4.56-1.33a3.3,3.3,0,0,0-2.17,1.92A.53.53,0,0,1,344.82,303.78Z"/></g><g id="Group_91" data-name="Group 91"><path id="Path_326" data-name="Path 326" class="cls-7" d="M334.67,340.58a.43.43,0,0,1-.19,0c-.44-.18-10.87-4.5-14.74-11.51a.51.51,0,1,1,.9-.49c3.7,6.69,14.13,11,14.23,11.06a.5.5,0,0,1,.28.66.52.52,0,0,1-.47.32Z"/></g><g id="Group_92" data-name="Group 92"><path id="Path_327" data-name="Path 327" class="cls-13" d="M330.92,318.33c8.95-10.49,11.25-26.18,11.25-26.18S324.8,290,315.49,288.9c-3.57,5.55-3.49,12.72-2.8,19,1.75,15.74,12.74,29,23.13,31.82C327,336.23,325.3,324.93,330.92,318.33Z"/></g><g id="Group_98" data-name="Group 98"><g id="Group_93" data-name="Group 93"><path id="Path_328" data-name="Path 328" class="cls-15" d="M354.58,299.39s7.37-21.33-30-22.1c-34.15-.71-34,27.53-35.94,54.68s-15.26,36.33-15.26,36.33-7.11,7.11,2.59,9.18,39.82,2.58,38.52-43.83S351.35,275.87,354.58,299.39Z"/></g><g id="Group_94" data-name="Group 94"><path id="Path_329" data-name="Path 329" class="cls-15" d="M345.79,287.89s-3.56,24.95-31.35,23.66c0,0-9.12-26,7.56-31.61,15.78-5.32,27.41,3,31.42,8.33,2.4,3.19,1.93,8.4,1.16,11.12C354.58,299.39,346.56,295.77,345.79,287.89Z"/></g><g id="Group_97" data-name="Group 97"><g id="Group_95" data-name="Group 95"><path id="Path_330" data-name="Path 330" class="cls-13" d="M321.28,310.25c.65,4.37-1.28,8.28-4.32,8.73s-6-2.72-6.67-7.1,1.28-8.28,4.32-8.73S320.64,305.88,321.28,310.25Z"/></g><g id="Group_96" data-name="Group 96"><path id="Path_331" data-name="Path 331" class="cls-7" d="M314.77,315.05a.38.38,0,0,1-.35-.23c-1.21-2.71-1.5-4.81-.86-6.25a2.44,2.44,0,0,1,1.35-1.36.38.38,0,0,1,.24.73,1.68,1.68,0,0,0-.9,1c-.37.85-.51,2.51.87,5.6a.39.39,0,0,1-.19.51.41.41,0,0,1-.16,0Z"/></g></g></g></g><g id="body-2"><g id="Group_99" data-name="Group 99"><path id="Path_332" data-name="Path 332" class="cls-16" d="M332,355.11c10.68.15,22.06.19,31.91,4.88,11.33,5.4,18,17.58,22.87,28.58,11.42,25.64,13.57,54.84,12.25,82.53q-.37,7.56-1.1,15.1H294.79s5.82-25.21,2.33-38-5.05-18.62-5.05-18.62,1.55,53.52-17.45,58.57c0,0,8.15-14-3.1-42.28s-11.25-29.47-11.25-29.47,6.21-43.83,24.83-52.75S332,355.11,332,355.11Z"/></g><g id="Group_100" data-name="Group 100"><path id="Path_333" data-name="Path 333" class="cls-17" d="M290.44,435.52c-.39-3.52-2-20.72,2.75-37.74a2.48,2.48,0,0,1,4.49-.62c8,13,29.22,52.22,16.66,87.55a2.45,2.45,0,0,1-2.13,1.61l-14.86,1.17a2.48,2.48,0,0,1-2.67-2.27,2.67,2.67,0,0,1,0-.69c1.82-9,5.84-34.4-3.82-47.85A2.45,2.45,0,0,1,290.44,435.52Z"/></g><g id="Group_101" data-name="Group 101"><path id="Path_334" data-name="Path 334" class="cls-17" d="M364.62,391.19c3.84,14.28,19.07,72.62,17.23,94.08a1.28,1.28,0,0,1-1.29,1.17l-30.88-.24a1.27,1.27,0,0,1-1.25-1.05c-.8-4.51-3.33-22.8,4.08-40.32,8.53-20.17-6.59-22.3,2.33-39.56l7.4-14.33a1.28,1.28,0,0,1,1.73-.55A1.24,1.24,0,0,1,364.62,391.19Z"/></g><g id="Group_104" data-name="Group 104"><g id="Group_102" data-name="Group 102"><path id="Path_335" data-name="Path 335" class="cls-17" d="M340.16,348.52s-20.94,3.49-32.57-2.72c0,0-3.49,15.13,9.7,16.68s29.86-.39,29.86-2.72S340.16,348.52,340.16,348.52Z"/></g><g id="Group_103" data-name="Group 103"><path id="Path_336" data-name="Path 336" class="cls-18" d="M323.89,363.59c-10.17,0-15.19-5.31-15.51-5.66a1,1,0,0,1,1.51-1.38c.46.49,11.33,11.8,34.68-1.36a1,1,0,0,1,1,1.78C336.72,362,329.52,363.59,323.89,363.59Z"/></g></g><g id="hand"><g id="Group_111" data-name="Group 111"><g id="Group_105" data-name="Group 105"><path id="Path_337" data-name="Path 337" class="cls-14" d="M263.23,420.72a9,9,0,0,0-1.18-2.14,25.83,25.83,0,0,1-5.14-17.77c1.16-10.86,1.55-24-5.82-20.55s-3.87,3.1-3.87,3.1-2.33-29.09-4.27-31.8-4.65-3.49-4.65,1.93c0,3-.24,9.65-.45,15.1a8.75,8.75,0,0,1-6.31,8.09,3.85,3.85,0,0,0-2.94,2.8,19.42,19.42,0,0,0-.75,6.78,9.1,9.1,0,0,1-.6,4.73,4,4,0,0,0-.3,2.5,9.52,9.52,0,0,1,.23,3.94c-.47,2.79-.36,7.13,4.52,8.42l1.69.44a8.78,8.78,0,0,1,6.45,7.24c2.73,19.06,12.69,78.85,29.86,76.25a10,10,0,0,1,1.54-.09c2.28,0,9-1.32,10.7-17.75a8.63,8.63,0,0,0-.55-4Z"/></g><g id="Group_106" data-name="Group 106"><path id="Path_338" data-name="Path 338" class="cls-19" d="M243.79,402.81a.4.4,0,0,1-.36-.24c-1.37-3.3-1.52-6.09-.44-8.27a6.34,6.34,0,0,1,1.55-2c-4.49.77-7.7-.6-9.23-2.26a3,3,0,0,1-.88-3.17c.25-.56,1-1.5,3.15-1.5,6.38,0,13.26-5.67,13.33-5.72a.38.38,0,0,1,.54.06.4.4,0,0,1,0,.53c-.29.24-7.16,5.9-13.82,5.9-1.28,0-2.15.37-2.45,1a2.31,2.31,0,0,0,.75,2.34c1.64,1.77,5.45,3.18,10.89,1.43a2.09,2.09,0,0,1,.41-.13l.22.73-.33.11a6.37,6.37,0,0,0-3.4,3c-1,2-.81,4.54.47,7.63a.37.37,0,0,1-.2.5.4.4,0,0,1-.15,0Z"/></g><g id="Group_107" data-name="Group 107"><path id="Path_339" data-name="Path 339" class="cls-19" d="M237.58,380.12a.38.38,0,0,1-.35-.22c-1.2-2.59-.26-9.8-.22-10.1a.37.37,0,0,1,.42-.33h0a.38.38,0,0,1,.33.43h0c0,.07-.94,7.29.16,9.68a.38.38,0,0,1-.19.51.41.41,0,0,1-.16,0Z"/></g><g id="Group_108" data-name="Group 108"><path id="Path_340" data-name="Path 340" class="cls-19" d="M238,384.9a.41.41,0,0,1-.28-.11,19.22,19.22,0,0,0-5.21-3.1.39.39,0,0,1,.29-.72,19.9,19.9,0,0,1,5.47,3.28.38.38,0,0,1,0,.54.35.35,0,0,1-.27.11Z"/></g><g id="Group_109" data-name="Group 109"><path id="Path_341" data-name="Path 341" class="cls-19" d="M238.16,400.57c-1.26,0-3-1-4.75-2.07s-3.93-2.33-5.13-2.1a.37.37,0,0,1-.44-.3.38.38,0,0,1,.3-.45c1.49-.28,3.61,1,5.66,2.19,1.85,1.1,4,2.35,4.83,1.86.36-.2.56-.74.57-1.61.13-5.63-10.9-10.58-11-10.63A.39.39,0,0,1,228,387a.4.4,0,0,1,.51-.2h0C229,387,240.1,392,240,398.1c0,1.18-.34,1.92-1,2.27A1.65,1.65,0,0,1,238.16,400.57Z"/></g><g id="Group_110" data-name="Group 110"><path id="Path_342" data-name="Path 342" class="cls-19" d="M238.88,408.87a5.52,5.52,0,0,1-3.43-1.44.38.38,0,0,1,0-.55.39.39,0,0,1,.54,0c.11.11,2.85,2.56,5,.28a1.78,1.78,0,0,0,.5-1.42c-.16-2.29-3.66-5.1-3.7-5.13a.38.38,0,0,1,0-.54.39.39,0,0,1,.52-.06c.15.13,3.8,3.05,4,5.68a2.51,2.51,0,0,1-.71,2A3.6,3.6,0,0,1,238.88,408.87Z"/></g></g><g id="Group_112" data-name="Group 112"><path id="Path_343" data-name="Path 343" class="cls-13" d="M281.94,472a8.79,8.79,0,0,0-.55-4l-18.16-47.23a9.31,9.31,0,0,0-1.18-2.14,27.48,27.48,0,0,1-2.72-4.5c0,10.57.95,24.92,5.14,34.63,6.76,15.64,5.36,33.88-3,37.41,2.53,2.72,5.27,4.12,8.22,3.67a9.88,9.88,0,0,1,1.54-.09C273.51,489.72,280.26,488.38,281.94,472Z"/></g></g></g></g></g><g id="women_1" data-name="women 1"><g id="women_1-2" data-name="women 1-2"><g id="Face-2"><g id="Group_113" data-name="Group 113"><path id="Path_344" data-name="Path 344" class="cls-4" d="M408.09,45.06a1.87,1.87,0,0,1-.66-.15A22.14,22.14,0,0,0,398.65,43a34.77,34.77,0,0,0-20.93,7.89,59.2,59.2,0,0,0-18.67,28.91c-2.22,8.16-3.8,20.77,3.93,26.6,10.36,7.83,45.81,10.36,51.11,9.9s23.18-3.15,16.33-50.18l0-.17C430.06,64.57,425.38,46,408.09,45.06Z"/></g><g id="Group_114" data-name="Group 114"><path id="Path_345" data-name="Path 345" class="cls-20" d="M430.39,66c-.33-1.38-4.82-19.16-21.22-20.83,2.18,15.92,5.51,53.4,1.41,71.21a34.25,34.25,0,0,0,3.51,0c5.29-.46,23.18-3.15,16.33-50.18A1.13,1.13,0,0,0,430.39,66Z"/></g><g id="Group_115" data-name="Group 115"><path id="Path_346" data-name="Path 346" class="cls-14" d="M385.84,90.87A3.16,3.16,0,0,0,383.61,94c.18,6.1.4,26.51-4.67,32.49-5.73,6.76-25.24,3.25-41.44,22.59a2,2,0,0,0,1.23,3.27c15.2,2.24,77.91,10,111.58-8a2.93,2.93,0,0,0,1.17-4,4.07,4.07,0,0,0-.33-.48c-2.77-3.31-8.78-8.21-19.72-7.28-16.27,1.38-18.57-2-18.26-13.81.21-8.07.42-13.91.53-16.82a3.39,3.39,0,0,0-1.76-3.1C406.87,96.08,392.63,88.79,385.84,90.87Z"/></g><g id="Group_116" data-name="Group 116"><path id="Path_347" data-name="Path 347" class="cls-13" d="M426.18,152.52c-.39-8.13-20.19-10.74-21.15-17.76-1.27-9.3,8.29-22.87,8.29-22.87L395,91.53c-3.48-1-6.76-1.39-9.13-.66A3.16,3.16,0,0,0,383.61,94c.18,6.1.4,26.51-4.67,32.49-5.73,6.76-25.24,3.25-41.44,22.59a2,2,0,0,0,1.23,3.27C350.77,154.1,392.58,159.36,426.18,152.52Z"/></g><g id="Group_117" data-name="Group 117"><path id="Path_348" data-name="Path 348" class="cls-14" d="M401.31,48.78a17.89,17.89,0,0,1,9.81,1.1c15.73,6.67,17.3,27.34,14.32,41.82-8.52,41.44-45.3,16.52-42.58-20.54C383.59,61.23,386.77,51,401.31,48.78Z"/></g><g id="Group_118" data-name="Group 118"><path id="Path_349" data-name="Path 349" class="cls-4" d="M417.37,79.65A1.78,1.78,0,1,1,415.46,78h.14A1.71,1.71,0,0,1,417.37,79.65Z"/></g><g id="Group_119" data-name="Group 119"><path id="Path_350" data-name="Path 350" class="cls-4" d="M400.52,79.65A1.79,1.79,0,1,1,398.6,78h.14A1.72,1.72,0,0,1,400.52,79.65Z"/></g><g id="Group_120" data-name="Group 120"><path id="Path_351" data-name="Path 351" class="cls-4" d="M420.69,77.76a1,1,0,0,1-.73-.3c-2.93-3-6.76-1-6.92-.89a1,1,0,0,1-1-1.8c1.82-1,6.13-2,9.34,1.25a1,1,0,0,1,0,1.45,1,1,0,0,1-.72.3Z"/></g><g id="Group_121" data-name="Group 121"><path id="Path_352" data-name="Path 352" class="cls-4" d="M394.17,78.07a1,1,0,0,1-.67-1.8c2.11-1.81,7.25-4.25,11.64-.5a1,1,0,0,1-1.33,1.55c-4.15-3.54-8.78.33-9,.5A1,1,0,0,1,394.17,78.07Z"/></g><g id="Group_122" data-name="Group 122"><path id="Path_353" data-name="Path 353" class="cls-7" d="M410.21,91a.51.51,0,0,1-.51-.51.52.52,0,0,1,.25-.44,2.08,2.08,0,0,0,1.22-1.7c.05-1.91-2.92-4.31-3.66-4.8a.51.51,0,0,1-.14-.71.5.5,0,0,1,.71-.14h0s4.18,2.91,4.11,5.68A3,3,0,0,1,410.47,91,.44.44,0,0,1,410.21,91Z"/></g><g id="Group_123" data-name="Group 123"><path id="Path_354" data-name="Path 354" class="cls-7" d="M403.49,93.07c4.45.28,6.75.28,10.45,1.89.79.34,1.6.4,1.26,1.18a8.48,8.48,0,0,1-5.48,4.86c-4.77,1.48-7.86-2.82-7.84-7.33C401.89,92.82,402.65,93,403.49,93.07Z"/></g><g id="Group_124" data-name="Group 124"><path id="Path_355" data-name="Path 355" class="cls-7" d="M404.06,114.66c-12.21,0-16.63-8.73-16.68-8.84a.51.51,0,0,1,.92-.45h0a15.16,15.16,0,0,0,4.86,5.18c4.55,3.07,10.57,3.86,17.44,2.3a.51.51,0,1,1,.22,1A30.78,30.78,0,0,1,404.06,114.66Z"/></g><g id="Group_125" data-name="Group 125"><path id="Path_356" data-name="Path 356" class="cls-4" d="M404.93,67.77a61,61,0,0,1-12.12,9.9,5.07,5.07,0,0,0-2.29,2.68,24.16,24.16,0,0,1-5.82,9.36,5,5,0,0,1-7.05-.25,5.09,5.09,0,0,1-.46-.58,32.65,32.65,0,0,1-4.31-28.25C378.39,41.87,402.3,42.15,407.73,45a4.48,4.48,0,0,0,1.6.47c3.67.42,16.45,3.13,21.08,20.56a5,5,0,0,1-5.2,6.25c-4.06-.28-9.34-1.4-13.63-4.85A4.92,4.92,0,0,0,404.93,67.77Z"/></g><g id="Group_128" data-name="Group 128"><g id="Group_126" data-name="Group 126"><path id="Path_357" data-name="Path 357" class="cls-13" d="M386.54,88c-.91-2.31-2.18-5-4.2-6.56-5.06-3.84-9.29,3.74-9.11,8.08.2,5.08,5.71,10.38,10.08,10C390.7,98.89,386.55,88.05,386.54,88Z"/></g><g id="Group_127" data-name="Group 127"><path id="Path_358" data-name="Path 358" class="cls-7" d="M382.19,95.28a.45.45,0,0,1-.2,0,6.69,6.69,0,0,1-4-3.85,6.85,6.85,0,0,1,.52-5.1.51.51,0,0,1,.89.5h0a5.94,5.94,0,0,0-.44,4.28,5.77,5.77,0,0,0,3.46,3.24.51.51,0,0,1-.2,1Z"/></g></g><g id="Group_129" data-name="Group 129"><path id="Path_359" data-name="Path 359" class="cls-21" d="M457.82,199.33a1,1,0,0,1-1-.94c-1.18-13.94-16.49-32.4-16.65-32.58a1,1,0,1,1,1.54-1.36l0,.05c.65.77,15.88,19.14,17.12,33.72a1,1,0,0,1-.93,1.1Z"/></g></g><g id="Body-3"><g id="Group_130" data-name="Group 130"><path id="Path_360" data-name="Path 360" class="cls-14" d="M328.1,191.39l-1.05,72.3s22.72,1.23,26.09.3l2.77-60.78S337.43,179.56,328.1,191.39Z"/><path id="Path_361" data-name="Path 361" class="cls-13" d="M328.1,191.39l-.19,12.9c4.94,1.72,13.66,5.88,14.8,16.12a21.22,21.22,0,0,0,11.66,16.73l1.54-33.92S337.43,179.56,328.1,191.39Z"/></g><g id="Group_131" data-name="Group 131"><path id="Path_362" data-name="Path 362" class="cls-15" d="M339.57,146.78c11.15,3.16,62.33,15.67,108.8-5.57a3.31,3.31,0,0,1,4.3,1.43c5.71,10.45,25.76,48.1,28.65,67,2.71,17.77,1.46,40.09.87,48.17a3.34,3.34,0,0,1-3.35,3.09l-99.35-.29a3.34,3.34,0,0,1-3.2-2.44c-1.67-5.9-6.32-21.13-11.93-29.19a190.5,190.5,0,0,1-12.42-21.44,7.65,7.65,0,0,0-3.3-3.36l-18.75-9.89a3.34,3.34,0,0,1-1.79-2.92c-.07-7.12.28-31.36,7.74-43.18A3.34,3.34,0,0,1,339.57,146.78Z"/></g><g id="Group_132" data-name="Group 132"><path id="Path_363" data-name="Path 363" class="cls-22" d="M348.49,204.12h0a8.21,8.21,0,0,1,3.5,3.57A187.44,187.44,0,0,0,364.35,229c3,4.36,5.8,10.83,7.95,16.77a.51.51,0,0,0,.66.31.5.5,0,0,0,.33-.47c.73-23.94-17.83-66.58-21.51-74.78a.51.51,0,0,0-.68-.25.49.49,0,0,0-.29.36c-2.2,10.11-2.61,23.75-2.6,32.73A.49.49,0,0,0,348.49,204.12Z"/></g><g id="Group_142" data-name="Group 142"><g id="Group_137" data-name="Group 137"><g id="Group_133" data-name="Group 133"><path id="Path_364" data-name="Path 364" class="cls-14" d="M463,213.21a3,3,0,0,1,.1-.32c1.24-3.36,22.6-61.54,20.81-71.37-1.84-10.13-4.3-21.8-2.14-32.54s-2.15-13.82,2.76-14.43,4.6,11.66,6.44,17.19h0a2.67,2.67,0,0,0,4.8.58c4.72-7.52,14.12-21,21-21.17a2.49,2.49,0,0,0,1.25-.39,27,27,0,0,1,4.42-2.24,2.68,2.68,0,0,1,3.16,4l-.64.9a2.94,2.94,0,0,0,0,3.08c.73,1.14,1.18,3.46-.31,8.18a2.58,2.58,0,0,0,.34,2.19c1,1.57,1.66,6.58-7,22.32-8.32,15.14-11.75,19.61-13.07,20.94a2.67,2.67,0,0,0-.8,1.78c-.54,11.24-5.2,96-25.08,109.45a2.61,2.61,0,0,1-2.67.11C471.44,259,455.53,247.79,463,213.21Z"/></g><g id="Group_134" data-name="Group 134"><path id="Path_365" data-name="Path 365" class="cls-7" d="M514.62,127.91a.5.5,0,0,1-.45-.27C509.42,119,498,116,497.91,115.92a.51.51,0,0,1,.26-1h0c.49.13,11.93,3.23,16.9,12.22a.53.53,0,0,1-.45.76Z"/></g><g id="Group_135" data-name="Group 135"><path id="Path_366" data-name="Path 366" class="cls-7" d="M495.65,128.33h-.06a.52.52,0,0,1-.45-.57h0c.76-6.64-4.09-14.28-4.14-14.36a.51.51,0,1,1,.87-.55h0c.2.32,5.09,8,4.29,15A.52.52,0,0,1,495.65,128.33Z"/></g><g id="Group_136" data-name="Group 136"><path id="Path_367" data-name="Path 367" class="cls-7" d="M499.38,147.65a13.12,13.12,0,0,1-6.34-1.79.5.5,0,0,1-.16-.7.52.52,0,0,1,.71-.16s4.45,2.72,8.75,1.1a.52.52,0,0,1,.4,1h0A9.64,9.64,0,0,1,499.38,147.65Z"/></g></g><g id="Group_138" data-name="Group 138"><path id="Path_368" data-name="Path 368" class="cls-7" d="M514.62,127.91a.5.5,0,0,1-.45-.27C509.42,119,498,116,497.91,115.92a.51.51,0,0,1,.26-1h0c.49.13,11.93,3.23,16.9,12.22a.53.53,0,0,1-.45.76Z"/></g><g id="Group_139" data-name="Group 139"><path id="Path_369" data-name="Path 369" class="cls-7" d="M495.65,128.33h-.06a.52.52,0,0,1-.45-.57h0c.76-6.64-4.09-14.28-4.14-14.36a.51.51,0,1,1,.87-.55h0c.2.32,5.09,8,4.29,15A.52.52,0,0,1,495.65,128.33Z"/></g><g id="Group_140" data-name="Group 140"><path id="Path_370" data-name="Path 370" class="cls-7" d="M499.38,147.65a13.12,13.12,0,0,1-6.34-1.79.5.5,0,0,1-.16-.7.52.52,0,0,1,.71-.16s4.45,2.72,8.75,1.1a.52.52,0,0,1,.4,1h0A9.64,9.64,0,0,1,499.38,147.65Z"/></g><g id="Group_141" data-name="Group 141"><path id="Path_371" data-name="Path 371" class="cls-13" d="M479,205.67c3-14.77,2.76-33.68,2-47.13-5.57,20.75-17,51.92-17.91,54.35a3,3,0,0,0-.1.32c-7.48,34.58,8.44,45.74,13.38,48.31a2.61,2.61,0,0,0,2.67-.12c2.82-1.91,5.33-5.26,7.58-9.63C480.41,243,474.78,226.55,479,205.67Z"/></g></g></g></g></g><g id="element"><g id="Group_143" data-name="Group 143"><path id="Path_372" data-name="Path 372" class="cls-23" d="M255.79,214.57a.52.52,0,0,1-.52-.51.51.51,0,0,1,.46-.51c1.3-.17,2-.2,2.08-.2a.5.5,0,0,1,.53.46v0a.52.52,0,0,1-.49.54h0s-.74,0-2,.19Z"/><path id="Path_373" data-name="Path 373" class="cls-23" d="M235.05,351.45a.54.54,0,0,1-.28-.08c-1.15-.77-2.29-1.56-3.39-2.35a.51.51,0,0,1,.6-.83c1.09.79,2.22,1.57,3.36,2.32a.51.51,0,0,1-.29.94ZM227.61,346a.54.54,0,0,1-.32-.11c-1.07-.87-2.13-1.76-3.15-2.66a.53.53,0,0,1,0-.73.51.51,0,0,1,.69,0c1,.89,2.06,1.78,3.12,2.63a.51.51,0,0,1,.07.72.5.5,0,0,1-.4.19Zm-6.86-6.16a.5.5,0,0,1-.37-.14c-1-1-1.93-2-2.85-3a.51.51,0,0,1,.76-.68c.9,1,1.85,2,2.82,2.94a.51.51,0,0,1,0,.72.47.47,0,0,1-.36.15ZM214.59,333a.5.5,0,0,1-.4-.19c-.86-1.07-1.7-2.18-2.49-3.29a.51.51,0,0,1,.11-.72.52.52,0,0,1,.72.12h0c.78,1.1,1.61,2.19,2.46,3.25a.52.52,0,0,1-.08.72.54.54,0,0,1-.32.11Zm-5.31-7.54a.51.51,0,0,1-.44-.24c-.72-1.17-1.42-2.37-2.07-3.57a.52.52,0,0,1,.21-.7.51.51,0,0,1,.69.21c.65,1.18,1.33,2.37,2,3.52a.51.51,0,0,1-.17.71.48.48,0,0,1-.26.07Zm-4.34-8.13a.53.53,0,0,1-.47-.3c-.56-1.25-1.1-2.53-1.6-3.81a.51.51,0,0,1,1-.37c.49,1.26,1,2.52,1.57,3.75a.51.51,0,0,1-.25.68.54.54,0,0,1-.21.05Zm-3.26-8.63a.5.5,0,0,1-.49-.36c-.4-1.31-.78-2.65-1.1-4a.51.51,0,0,1,1-.25c.32,1.31.69,2.63,1.08,3.93a.51.51,0,0,1-.34.64h0l-.14,0Zm-2.14-9a.52.52,0,0,1-.5-.43c-.23-1.35-.42-2.72-.58-4.09a.51.51,0,0,1,.45-.56h0a.51.51,0,0,1,.57.44h0c.15,1.34.34,2.7.57,4a.51.51,0,0,1-.42.59h-.09Zm-1-9.17a.52.52,0,0,1-.51-.49c0-1.05-.07-2.09-.07-3.12,0-.34,0-.68,0-1a.51.51,0,0,1,.51-.5h0a.51.51,0,0,1,.5.52c0,.33,0,.66,0,1,0,1,0,2,.07,3.07a.51.51,0,0,1-.49.53Zm.19-9.23h0a.51.51,0,0,1-.47-.55h0c.12-1.37.28-2.75.47-4.1a.51.51,0,0,1,1,.15c-.19,1.33-.34,2.69-.46,4a.51.51,0,0,1-.51.46Zm1.38-9.12H200a.51.51,0,0,1-.39-.61c.3-1.35.64-2.7,1-4a.51.51,0,0,1,1,.28c-.37,1.29-.71,2.62-1,4a.52.52,0,0,1-.5.4Zm2.62-8.84a.51.51,0,0,1-.51-.51.53.53,0,0,1,0-.18c.5-1.32,1.05-2.6,1.63-3.81a.5.5,0,0,1,.69-.21.51.51,0,0,1,.23.65c-.57,1.18-1.1,2.44-1.6,3.73a.51.51,0,0,1-.47.33Zm21.52-.76h0a9.75,9.75,0,0,1-4.11-1.25.51.51,0,0,1-.18-.7.51.51,0,0,1,.7-.18,8.62,8.62,0,0,0,3.68,1.11.51.51,0,0,1,.48.54.52.52,0,0,1-.53.48Zm5.06-.63a.52.52,0,0,1-.53-.5.52.52,0,0,1,.37-.5,12.12,12.12,0,0,0,3.48-1.8.51.51,0,0,1,.71.13.52.52,0,0,1-.09.69,13.31,13.31,0,0,1-3.78,1.95l-.16,0ZM217.1,257.6a.5.5,0,0,1-.47-.31,11.87,11.87,0,0,1-.88-4.16.51.51,0,0,1,.46-.56.53.53,0,0,1,.56.47v0a11.15,11.15,0,0,0,.8,3.82.52.52,0,0,1-.28.67.63.63,0,0,1-.19,0ZM235.93,256a.34.34,0,0,1-.14,0,.51.51,0,0,1-.35-.63,6.9,6.9,0,0,0,.27-1.92,8.4,8.4,0,0,0-.23-1.87.51.51,0,1,1,1-.24h0a8.83,8.83,0,0,1,.26,2.11,7.8,7.8,0,0,1-.31,2.2.5.5,0,0,1-.49.37Zm-29.09-.92a.53.53,0,0,1-.27-.08.52.52,0,0,1-.16-.71h0a31.14,31.14,0,0,1,2.45-3.37.51.51,0,0,1,.78.65,30.12,30.12,0,0,0-2.36,3.27.52.52,0,0,1-.44.23Zm9.86-6.57a.51.51,0,0,1-.51-.51.31.31,0,0,1,0-.1c.12-.6.26-1.21.42-1.84a29.75,29.75,0,0,0-3.35,2.09.51.51,0,1,1-.6-.83,28.64,28.64,0,0,1,3.54-2.2.51.51,0,0,1,.63.13c.13-.45.27-.91.42-1.37a.51.51,0,0,1,.64-.33.5.5,0,0,1,.33.64,35.13,35.13,0,0,0-1,3.91.51.51,0,0,1-.5.41Zm16.82-1a.52.52,0,0,1-.37-.16,10.6,10.6,0,0,0-3.13-2.31.51.51,0,0,1,.45-.92,11.7,11.7,0,0,1,3.43,2.53.52.52,0,0,1,0,.72.54.54,0,0,1-.36.14Zm-12.29-3.23a.51.51,0,0,1-.51-.51.5.5,0,0,1,.4-.5,14.5,14.5,0,0,1,3.66-.44,4.87,4.87,0,0,1,.54,0,.51.51,0,0,1,.49.53.5.5,0,0,1-.51.49h-.56a15,15,0,0,0-3.4.4h-.11Zm-1.65-4.52a.51.51,0,0,1-.51-.51.52.52,0,0,1,0-.21c.57-1.27,1.2-2.51,1.87-3.7a.51.51,0,0,1,.89.51c-.66,1.16-1.27,2.37-1.82,3.61a.53.53,0,0,1-.47.3Zm4.66-7.94a.51.51,0,0,1-.51-.51.5.5,0,0,1,.1-.31,38.4,38.4,0,0,1,2.67-3.18.5.5,0,0,1,.72,0,.51.51,0,0,1,0,.72h0a38.42,38.42,0,0,0-2.6,3.1.51.51,0,0,1-.41.2Zm6.36-6.66a.51.51,0,0,1-.51-.51.53.53,0,0,1,.18-.39c1-.87,2.16-1.71,3.31-2.5a.52.52,0,0,1,.58.85c-1.12.76-2.21,1.58-3.24,2.43a.49.49,0,0,1-.32.12Zm7.67-5.1a.51.51,0,0,1-.51-.51.5.5,0,0,1,.27-.45c1.2-.64,2.46-1.23,3.75-1.78a.52.52,0,0,1,.4.95h0c-1.26.53-2.49,1.11-3.67,1.73a.42.42,0,0,1-.24.05Zm8.52-3.52a.5.5,0,0,1-.51-.5.52.52,0,0,1,.36-.5c1.31-.41,2.65-.77,4-1.08a.5.5,0,0,1,.61.38.51.51,0,0,1-.38.62c-1.32.3-2.64.66-3.92,1.06a.39.39,0,0,1-.15,0Z"/><path id="Path_374" data-name="Path 374" class="cls-23" d="M241.25,355.27a.43.43,0,0,1-.25-.07l-1.78-1a.51.51,0,0,1-.17-.7.5.5,0,0,1,.7-.18l1.75,1a.5.5,0,0,1,.2.69.54.54,0,0,1-.45.26Z"/></g><g id="element_3" data-name="element 3"><path id="Path_375" data-name="Path 375" class="cls-23" d="M653,183.85l-.14,0a.51.51,0,0,1-.35-.63h0s.41-1.47,1.06-4a.5.5,0,0,1,.62-.36.51.51,0,0,1,.37.62c-.65,2.5-1.07,4-1.07,4A.5.5,0,0,1,653,183.85Zm2.32-8.94a.51.51,0,0,1-.51-.51.49.49,0,0,1,0-.12c.3-1.24.62-2.57.95-4a.52.52,0,0,1,.62-.39.52.52,0,0,1,.38.62c-.33,1.42-.65,2.75-.95,4a.51.51,0,0,1-.5.39Zm2.08-9a.5.5,0,0,1-.51-.51.37.37,0,0,1,0-.11c.28-1.3.56-2.64.84-4a.51.51,0,0,1,.56-.46.52.52,0,0,1,.46.57s0,.06,0,.09c-.28,1.37-.56,2.71-.85,4A.5.5,0,0,1,657.41,165.93Zm1.81-9h-.09a.51.51,0,0,1-.41-.6h0c.24-1.33.47-2.68.7-4a.5.5,0,0,1,.57-.43h0a.51.51,0,0,1,.42.59h0c-.22,1.35-.45,2.7-.7,4A.51.51,0,0,1,659.22,156.9Zm1.46-9.1h-.07a.51.51,0,0,1-.43-.58c.18-1.37.35-2.72.49-4.05a.5.5,0,0,1,.54-.46h0a.52.52,0,0,1,.46.57h0c-.15,1.34-.31,2.7-.5,4.08A.53.53,0,0,1,660.68,147.8Zm.93-9.17h0a.51.51,0,0,1-.48-.54c.08-1.44.13-2.8.13-4.07a.51.51,0,0,1,.51-.51h0a.51.51,0,0,1,.51.52c0,1.28,0,2.66-.13,4.12a.51.51,0,0,1-.51.48Zm-.13-9.2A.52.52,0,0,1,661,129c-.05-.44-.11-.86-.18-1.27a18,18,0,0,0-.64-2.63.53.53,0,0,1,.34-.65.52.52,0,0,1,.64.34,20,20,0,0,1,.67,2.77c.07.42.14.86.19,1.32a.51.51,0,0,1-.45.56h-.06Zm-2.89-8.67a.5.5,0,0,1-.45-.27,32.43,32.43,0,0,0-2.18-3.38.51.51,0,0,1,.06-.72.52.52,0,0,1,.72.06.21.21,0,0,1,0,.06A34.66,34.66,0,0,1,659,120a.52.52,0,0,1-.2.7.54.54,0,0,1-.25.06Zm-26.27-5.62a.51.51,0,0,1-.1-1,17.29,17.29,0,0,0,3.77-1.22.51.51,0,0,1,.69.22.52.52,0,0,1-.23.69l0,0a19.11,19.11,0,0,1-4,1.3h-.11Zm-4.79-1.47a.51.51,0,0,1-.3-.1,5.43,5.43,0,0,1-2.33-3.7.51.51,0,1,1,1-.19s0,0,0,0a4.43,4.43,0,0,0,1.91,3,.51.51,0,0,1-.3.93Zm25.56-.27a.51.51,0,0,1-.37-.16c-.92-1-1.9-1.91-2.92-2.81a.51.51,0,0,1,0-.72.5.5,0,0,1,.72,0c1,.92,2,1.89,3,2.88a.51.51,0,0,1-.37.86Zm-12.65-2.33a.51.51,0,0,1-.52-.51.49.49,0,0,1,.17-.38,16.44,16.44,0,0,0,2.56-3,.51.51,0,0,1,.71-.14.5.5,0,0,1,.14.71h0a17.66,17.66,0,0,1-2.72,3.2.48.48,0,0,1-.34.14Zm5.68-3.69a.52.52,0,0,1-.29-.09c-1.13-.79-2.27-1.52-3.41-2.17a.51.51,0,0,1-.25-.68.52.52,0,0,1,.68-.25l.07,0c1.16.66,2.34,1.41,3.5,2.22a.5.5,0,0,1,.12.71.5.5,0,0,1-.42.22Zm-19.71-2a.51.51,0,0,1-.52-.51.54.54,0,0,1,.05-.22c.12-.24.24-.49.37-.74a5.48,5.48,0,0,1,2.56-2.47.51.51,0,0,1,.43.93h0a4.45,4.45,0,0,0-2.08,2c-.13.24-.24.48-.35.7a.5.5,0,0,1-.47.3Zm18.94-2a.51.51,0,0,1-.51-.51.57.57,0,0,1,0-.18,26.93,26.93,0,0,0,1-3.87.52.52,0,0,1,.62-.38.52.52,0,0,1,.38.57,26.61,26.61,0,0,1-1.08,4A.52.52,0,0,1,645.35,103.4Zm-7.3-.39a.57.57,0,0,1-.18,0,19,19,0,0,0-3.84-1,.52.52,0,0,1-.43-.59.5.5,0,0,1,.58-.42,20.37,20.37,0,0,1,4.05,1.09.51.51,0,0,1-.18,1ZM647,94.37h0a.51.51,0,0,1-.49-.53c0-.38,0-.77,0-1.16,0-.94,0-1.91-.11-2.87a.51.51,0,0,1,.47-.55.51.51,0,0,1,.55.47c.07,1,.11,2,.11,3,0,.4,0,.8,0,1.2a.51.51,0,0,1-.51.49Zm-.76-9.16a.5.5,0,0,1-.5-.41c-.25-1.31-.56-2.64-.93-3.94a.5.5,0,0,1,.38-.62.49.49,0,0,1,.6.34c.38,1.33.7,2.69,1,4a.51.51,0,0,1-.4.6h-.1Zm-2.57-8.82a.52.52,0,0,1-.48-.33c-.49-1.25-1-2.5-1.63-3.7a.51.51,0,0,1,.91-.45h0c.6,1.23,1.17,2.5,1.67,3.78a.52.52,0,0,1-.28.67h0a.63.63,0,0,1-.19,0Zm-4.14-8.21a.52.52,0,0,1-.44-.24c-.72-1.15-1.5-2.27-2.3-3.33a.51.51,0,0,1,.14-.71.51.51,0,0,1,.68.09c.82,1.09,1.61,2.23,2.35,3.4a.52.52,0,0,1-.16.71.53.53,0,0,1-.27.08Zm-5.65-7.25a.51.51,0,0,1-.37-.16c-.94-1-1.92-1.89-3-2.76a.51.51,0,0,1-.06-.72.52.52,0,0,1,.72-.06,40.42,40.42,0,0,1,3,2.83.51.51,0,0,1-.36.87Zm-52.62-.13a.5.5,0,0,1-.51-.5.55.55,0,0,1,.11-.33,32.76,32.76,0,0,1,2.84-3,.51.51,0,0,1,.7.75,30.57,30.57,0,0,0-2.75,2.94.49.49,0,0,1-.39.19Zm45.5-5.68a.53.53,0,0,1-.27-.08,35.42,35.42,0,0,0-3.53-1.93.5.5,0,0,1-.24-.68.51.51,0,0,1,.68-.24,33.64,33.64,0,0,1,3.63,2,.51.51,0,0,1,.17.7.52.52,0,0,1-.44.24ZM588,54.6a.51.51,0,0,1-.51-.51.5.5,0,0,1,.22-.42,33,33,0,0,1,3.58-2.12.51.51,0,0,1,.46.92h0a30.78,30.78,0,0,0-3.46,2,.49.49,0,0,1-.28.09Zm30.38-3.28-.16,0c-1.3-.43-2.62-.79-3.9-1.09a.51.51,0,0,1,.23-1c1.31.3,2.65.68,4,1.1a.52.52,0,0,1,.34.64.5.5,0,0,1-.5.36Zm-22.13-.72a.5.5,0,0,1-.51-.5.53.53,0,0,1,.36-.5,31.6,31.6,0,0,1,4-1,.5.5,0,0,1,.59.42.51.51,0,0,1-.42.59,29.1,29.1,0,0,0-3.9.93l-.15,0Zm13.15-1.22h0c-1.2-.12-2.41-.18-3.62-.18h-.41a.5.5,0,0,1-.52-.48v0a.51.51,0,0,1,.51-.51h.44a35.27,35.27,0,0,1,3.7.19.5.5,0,0,1,.44.57.51.51,0,0,1-.49.45Z"/><path id="Path_376" data-name="Path 376" class="cls-23" d="M651.63,188.51a1,1,0,0,1-1-.67l-6.45-17a1,1,0,0,1,1.9-.77l0,0,5.94,15.7,14.55-12a1,1,0,0,1,1.34,1.54.08.08,0,0,1,0,0l-15.65,12.89A1.06,1.06,0,0,1,651.63,188.51Z"/></g><g id="Time"><g id="Group_160" data-name="Group 160"><g id="Group_148" data-name="Group 148"><g id="Group_147" data-name="Group 147"><g id="Group_146" data-name="Group 146"><g id="Group_145" data-name="Group 145"><g id="Group_144" data-name="Group 144"><circle id="Ellipse_3" data-name="Ellipse 3" class="cls-13" cx="590.15" cy="44.14" r="44.14"/></g></g></g></g></g><g id="Group_154" data-name="Group 154"><g id="Group_153" data-name="Group 153"><g id="Group_152" data-name="Group 152"><g id="Group_151" data-name="Group 151"><g id="Group_150" data-name="Group 150"><g id="Group_149" data-name="Group 149"><circle id="Ellipse_4" data-name="Ellipse 4" class="cls-9" cx="590.15" cy="44.14" r="35.89"/></g></g></g></g></g></g><g id="Group_159" data-name="Group 159"><g id="Group_158" data-name="Group 158"><g id="Group_157" data-name="Group 157"><g id="Group_156" data-name="Group 156"><g id="Group_155" data-name="Group 155"><path id="Path_377" data-name="Path 377" class="cls-24" d="M554.26,44.14c0,1,0,1.91.11,2.84a35.89,35.89,0,0,1,71.55,0c.08-.93.11-1.88.12-2.84a35.89,35.89,0,0,0-71.78,0Z"/></g></g></g></g></g></g><g id="Group_164" data-name="Group 164"><g id="Group_163" data-name="Group 163"><g id="Group_162" data-name="Group 162"><g id="Group_161" data-name="Group 161"><path id="Path_378" data-name="Path 378" class="cls-4" d="M590.15,47.88a.9.9,0,0,0,.72-.37l17.6-23.7A.9.9,0,0,0,607,22.74L589.85,45.87,570.33,37.3a.9.9,0,1,0-.84,1.6l.12.05,20.17,8.85A1,1,0,0,0,590.15,47.88Z"/></g></g></g></g></g><g id="plant"><g id="Group_213" data-name="Group 213"><g id="Group_176" data-name="Group 176"><g id="Group_165" data-name="Group 165"><path id="Path_379" data-name="Path 379" class="cls-4" d="M275,218.5a.51.51,0,0,1-.51-.49c-2.92-60.48-8.82-68.8-10.56-69.91-.35-.22-.53-.15-.53-.15a.5.5,0,0,1-.69-.17h0a.52.52,0,0,1,.18-.72,1.42,1.42,0,0,1,1.41.07c3,1.57,8.41,12.85,11.21,70.83a.53.53,0,0,1-.49.54Z"/></g><path id="Path_380" data-name="Path 380" class="cls-2" d="M263.45,146.69c-2.78-2.11-5.72-2.52-9.2-2.38a28,28,0,0,0-10.07,2.6c2.15-.94-12.74,9.22-13.82,10.87-3.26,5-4.39,11.57-2,17a2.4,2.4,0,0,0,1.1,1.34,2.66,2.66,0,0,0,1.82-.14c6.2-2,12.44-4.06,18.13-7.22s10.88-7.57,13.94-13.32a11.39,11.39,0,0,0,1.47-4.42A5.52,5.52,0,0,0,263.45,146.69Z"/><g id="Group_167" data-name="Group 167"><g id="Group_166" data-name="Group 166"><path id="Path_381" data-name="Path 381" class="cls-4" d="M229.85,175.8a.31.31,0,0,1-.31-.3.36.36,0,0,1,0-.1c.08-.24,7.76-23.25,33-28.65a.32.32,0,0,1,.36.24.3.3,0,0,1-.23.36h0c-24.87,5.32-32.46,28-32.53,28.23A.31.31,0,0,1,229.85,175.8Z"/></g></g><g id="Group_169" data-name="Group 169"><g id="Group_168" data-name="Group 168"><path id="Path_382" data-name="Path 382" class="cls-4" d="M229.85,161.63a.3.3,0,0,1-.11-.58l.27-.19c3.52-2.44,7.1-3.31,10.63-2.6a.31.31,0,0,1,.24.36.3.3,0,0,1-.36.24h0c-3.36-.69-6.78.16-10.16,2.5a2,2,0,0,1-.41.25A.18.18,0,0,1,229.85,161.63Z"/></g></g><g id="Group_171" data-name="Group 171"><g id="Group_170" data-name="Group 170"><path id="Path_383" data-name="Path 383" class="cls-4" d="M237.71,172.48a.3.3,0,0,1-.34-.26.3.3,0,0,1,.25-.34c.06,0,6-2,4.1-14.15a.3.3,0,0,1,.24-.35h0a.31.31,0,0,1,.35.25c2,12.73-4.26,14.75-4.53,14.83Z"/></g></g><g id="Group_173" data-name="Group 173"><g id="Group_172" data-name="Group 172"><path id="Path_384" data-name="Path 384" class="cls-4" d="M251.87,150.79a.32.32,0,0,1-.2-.08c-3.47-3.16-8.83-1.39-8.88-1.38a.3.3,0,0,1-.39-.18.31.31,0,0,1,.19-.39c.23-.08,5.75-1.9,9.49,1.5a.3.3,0,0,1,0,.42.31.31,0,0,1-.23.11Z"/></g></g><g id="Group_175" data-name="Group 175"><g id="Group_174" data-name="Group 174"><path id="Path_385" data-name="Path 385" class="cls-4" d="M250.88,166.72a.37.37,0,0,1-.15,0,.3.3,0,0,1-.12-.41h0c0-.08,4.56-8.38,2.19-15.8a.3.3,0,0,1,.2-.38.3.3,0,0,1,.38.19c2.44,7.67-2.19,16.2-2.24,16.29A.3.3,0,0,1,250.88,166.72Z"/></g></g></g><g id="Group_189" data-name="Group 189"><g id="Group_177" data-name="Group 177"><path id="Path_386" data-name="Path 386" class="cls-4" d="M283,219.57a.51.51,0,0,1-.51-.48c-2.08-34.94,6.27-54.36,6.35-54.55a.51.51,0,0,1,.94.41c-.09.19-8.33,19.41-6.27,54.08a.51.51,0,0,1-.48.54h0Z"/></g><g id="Group_188" data-name="Group 188"><path id="Path_387" data-name="Path 387" class="cls-2" d="M331.23,154.61a1,1,0,0,0-.33-.42,45.23,45.23,0,0,0-11-6.66,34.66,34.66,0,0,0-9.6-2.88,18.49,18.49,0,0,0-9.86,1.25c-5.17,2.32-8.62,7.46-10.34,12.86a30,30,0,0,0-.92,3.59c-.16.82-.8,2.72-.25,3.43,1.55.34,3.17-.6,4.58-1.1q2.4-.84,4.85-1.51a69.55,69.55,0,0,1,10.1-2c5.89-.7,9.76-1,11.65-1.29a23.12,23.12,0,0,0,10.71-4.46C331,155.24,331.32,154.94,331.23,154.61Z"/><g id="Group_179" data-name="Group 179"><g id="Group_178" data-name="Group 178"><path id="Path_388" data-name="Path 388" class="cls-4" d="M289,165.61H289a.3.3,0,0,1-.23-.36h0c0-.14,3.34-14.26,14.45-17.37,13.63-3.82,27.5,6.7,27.64,6.81a.3.3,0,0,1,.06.42.31.31,0,0,1-.43.06c-.13-.1-13.78-10.44-27.11-6.7-10.76,3-14,16.78-14,16.92A.3.3,0,0,1,289,165.61Z"/></g></g><g id="Group_181" data-name="Group 181"><g id="Group_180" data-name="Group 180"><path id="Path_389" data-name="Path 389" class="cls-4" d="M300.89,149.24h-.09a.3.3,0,0,1-.2-.37h0a6.4,6.4,0,0,1,4.08-4.08.31.31,0,0,1,.17.59,5.86,5.86,0,0,0-3.67,3.66A.31.31,0,0,1,300.89,149.24Z"/></g></g><g id="Group_183" data-name="Group 183"><g id="Group_182" data-name="Group 182"><path id="Path_390" data-name="Path 390" class="cls-4" d="M315.17,148.19a.31.31,0,0,1-.33-.28.3.3,0,0,1,.21-.3,5.62,5.62,0,0,1,4.11-.28.31.31,0,0,1,.16.4.32.32,0,0,1-.4.16,5.09,5.09,0,0,0-3.64.28Z"/></g></g><g id="Group_185" data-name="Group 185"><g id="Group_184" data-name="Group 184"><path id="Path_391" data-name="Path 391" class="cls-4" d="M323.9,158.66c-4.79,0-16.32-10.35-16.82-10.79a.31.31,0,0,1,0-.43.29.29,0,0,1,.43,0c.12.1,11.85,10.63,16.39,10.63h.22a.31.31,0,0,1,.33.28.29.29,0,0,1-.27.32h-.26Z"/></g></g><g id="Group_187" data-name="Group 187"><g id="Group_186" data-name="Group 186"><path id="Path_392" data-name="Path 392" class="cls-4" d="M307,161c-4.36,0-12.39-6-12.73-6.26a.3.3,0,0,1,.36-.49h0c.09.07,8.45,6.3,12.53,6.14a.3.3,0,0,1,.32.29.32.32,0,0,1-.29.32Z"/></g></g></g></g><g id="Group_191" data-name="Group 191"><g id="Group_190" data-name="Group 190"><path id="Path_393" data-name="Path 393" class="cls-4" d="M286.91,219.31a.51.51,0,0,1-.5-.43c-4.33-26.08,4.41-40.56,4.5-40.7a.52.52,0,0,1,.71-.17.5.5,0,0,1,.16.7c-.09.14-8.62,14.34-4.36,40a.51.51,0,0,1-.41.59h-.1Z"/></g></g><g id="Group_212" data-name="Group 212"><g id="Group_192" data-name="Group 192"><path id="Path_394" data-name="Path 394" class="cls-4" d="M278.87,218.83h0a.51.51,0,0,1-.47-.55h0c.87-11.79-.54-73.9-.55-74.53a.5.5,0,0,1,.49-.52h0a.51.51,0,0,1,.51.5c0,.62,1.43,62.79.55,74.63A.51.51,0,0,1,278.87,218.83Z"/></g><path id="Path_395" data-name="Path 395" class="cls-2" d="M287.35,162.66a12.81,12.81,0,0,0-1.68-6.73c-1.3-2-4.32-4-6.53-3.24-.24-2.53-2.8-4.44-5.34-4.47a8.4,8.4,0,0,0-6.47,3.51,20.25,20.25,0,0,0-3.11,6.91A46.79,46.79,0,0,0,262.3,177,27.78,27.78,0,0,0,270,193.63a2.43,2.43,0,0,0,4,.34A41.15,41.15,0,0,0,287.35,162.66Z"/><path id="Path_396" data-name="Path 396" class="cls-2" d="M280.77,132.42a18,18,0,0,0-2.37-6.9,19.84,19.84,0,0,0-15.7-9.33,22,22,0,0,0-17,7,1.25,1.25,0,0,0-.46,1c.05.38.41.62.74.82l.72.42,7.94,4.68c2.64,1.57,7.32,3.13,10,4.69s3.26,3.13,5.9,4.69l7.84,4.62a15.23,15.23,0,0,0,1.92-4.37A18.17,18.17,0,0,0,280.77,132.42Z"/><g id="Group_194" data-name="Group 194"><g id="Group_193" data-name="Group 193"><path id="Path_397" data-name="Path 397" class="cls-4" d="M278.32,144a.3.3,0,0,1-.3-.29l0-.53c-.16-5.07-.42-13.55-9.51-18.86-9.25-5.4-22.37-.09-22.5,0a.3.3,0,0,1-.4-.16.31.31,0,0,1,.17-.4,37.83,37.83,0,0,1,7.9-2.07c4.16-.63,10.16-.76,15.14,2.14,9.38,5.48,9.65,14.17,9.81,19.37l0,.52a.3.3,0,0,1-.29.32h0Z"/></g></g><g id="Group_196" data-name="Group 196"><g id="Group_195" data-name="Group 195"><path id="Path_398" data-name="Path 398" class="cls-4" d="M265,122.57a.3.3,0,0,1-.3-.27c-.42-4.37-4.78-5.41-5-5.45a.32.32,0,0,1-.23-.37.3.3,0,0,1,.37-.22s5,1.17,5.43,6a.3.3,0,0,1-.26.33h0Z"/></g></g><g id="Group_198" data-name="Group 198"><g id="Group_197" data-name="Group 197"><path id="Path_399" data-name="Path 399" class="cls-4" d="M276,131.76a.3.3,0,0,1-.31-.3.32.32,0,0,1,.08-.21c3.36-3.64.29-7.85.16-8a.3.3,0,0,1,.06-.42.31.31,0,0,1,.43.06s3.5,4.79-.2,8.8A.32.32,0,0,1,276,131.76Z"/></g></g><g id="Group_200" data-name="Group 200"><g id="Group_199" data-name="Group 199"><path id="Path_400" data-name="Path 400" class="cls-4" d="M261.45,129.45a31.6,31.6,0,0,1-5.5-.5.31.31,0,0,1-.25-.36.32.32,0,0,1,.36-.24c.12,0,11.79,2.23,13.94-3.06a.3.3,0,0,1,.39-.17.31.31,0,0,1,.17.4C269.26,128.72,265,129.45,261.45,129.45Z"/></g></g><g id="Group_201" data-name="Group 201"><path id="Path_401" data-name="Path 401" class="cls-25" d="M272,137.86a18,18,0,0,1-3.8-.42.12.12,0,0,1-.09-.15.13.13,0,0,1,.15-.1c.06,0,6.2,1.43,9.18-1.19a.14.14,0,0,1,.18,0,.14.14,0,0,1,0,.18A8.6,8.6,0,0,1,272,137.86Z"/></g><g id="Group_203" data-name="Group 203"><g id="Group_202" data-name="Group 202"><path id="Path_402" data-name="Path 402" class="cls-4" d="M271.58,195.13a.3.3,0,0,1-.3-.27c-2.08-19,6.26-42,6.35-42.19a.3.3,0,1,1,.57.21h0c-.09.23-8.38,23-6.32,41.91a.3.3,0,0,1-.26.34h0Z"/></g></g><g id="Group_205" data-name="Group 205"><g id="Group_204" data-name="Group 204"><path id="Path_403" data-name="Path 403" class="cls-4" d="M263.27,183a.3.3,0,0,1-.31-.3.31.31,0,0,1,.09-.22l9.52-9.85a.3.3,0,0,1,.43.43h0l-9.51,9.84A.32.32,0,0,1,263.27,183Z"/></g></g><g id="Group_207" data-name="Group 207"><g id="Group_206" data-name="Group 206"><path id="Path_404" data-name="Path 404" class="cls-4" d="M280.53,182.55a.3.3,0,0,1-.26-.15L273,170.56a.31.31,0,0,1,.1-.42.32.32,0,0,1,.42.1l7.3,11.84a.31.31,0,0,1-.09.42.34.34,0,0,1-.17.05Z"/></g></g><g id="Group_209" data-name="Group 209"><g id="Group_208" data-name="Group 208"><path id="Path_405" data-name="Path 405" class="cls-4" d="M262.71,166.28a.3.3,0,0,1-.31-.29.31.31,0,0,1,.14-.26l14.18-10.32a.3.3,0,0,1,.42.07.3.3,0,0,1-.06.42l-14.19,10.32A.28.28,0,0,1,262.71,166.28Z"/></g></g><g id="Group_211" data-name="Group 211"><g id="Group_210" data-name="Group 210"><path id="Path_406" data-name="Path 406" class="cls-4" d="M285.51,167a.36.36,0,0,1-.22-.09l-9.07-9.31a.3.3,0,0,1,.43-.42h0l9.08,9.3a.3.3,0,0,1,0,.43.28.28,0,0,1-.22.09Z"/></g></g></g></g><g id="Group_232" data-name="Group 232"><g id="Group_218" data-name="Group 218"><g id="Group_217" data-name="Group 217"><g id="Group_216" data-name="Group 216"><g id="Group_215" data-name="Group 215"><g id="Group_214" data-name="Group 214"><path id="Path_407" data-name="Path 407" class="cls-22" d="M253.65,215.74l8.77,45.12h36.1L308,215.38l-53.78-.28a.53.53,0,0,0-.53.53A.41.41,0,0,0,253.65,215.74Z"/></g></g></g></g></g><g id="Group_222" data-name="Group 222"><g id="Group_221" data-name="Group 221"><g id="Group_220" data-name="Group 220"><g id="Group_219" data-name="Group 219"><path id="Rectangle_18" data-name="Rectangle 18" class="cls-15" d="M251,206.53h58.46a4.66,4.66,0,0,1,4.66,4.65h0a4.66,4.66,0,0,1-4.66,4.66H251a4.66,4.66,0,0,1-4.65-4.66h0a4.65,4.65,0,0,1,4.65-4.65Z"/></g></g></g></g><g id="Group_227" data-name="Group 227"><g id="Group_226" data-name="Group 226"><g id="Group_225" data-name="Group 225"><g id="Group_224" data-name="Group 224"><g id="Group_223" data-name="Group 223"><path id="Path_408" data-name="Path 408" class="cls-15" d="M253.74,257.79l3.84,5.29a1,1,0,0,0,.76.39h43a1,1,0,0,0,.7-.32l4.59-5.29a.94.94,0,0,0-.7-1.55H254.5a.94.94,0,0,0-.94.93A.91.91,0,0,0,253.74,257.79Z"/></g></g></g></g></g><g id="Group_231" data-name="Group 231"><g id="Group_228" data-name="Group 228"><path id="Path_409" data-name="Path 409" class="cls-4" d="M303.59,234.48H257.76a.51.51,0,0,1,0-1h45.83a.51.51,0,0,1,0,1Z"/></g><g id="Group_229" data-name="Group 229"><path id="Path_410" data-name="Path 410" class="cls-4" d="M303,237.43H258.13a.52.52,0,0,1,0-1h44.81a.52.52,0,1,1,0,1h0Z"/></g><g id="Group_230" data-name="Group 230"><path id="Path_411" data-name="Path 411" class="cls-4" d="M302.12,240.65H259a.52.52,0,0,1,0-1h43.16a.52.52,0,0,1,0,1Z"/></g></g></g><g id="Group_243" data-name="Group 243"><path id="Path_412" data-name="Path 412" class="cls-2" d="M317,196.26a22.23,22.23,0,0,0-6.83-13.55,21.91,21.91,0,0,0-14-5.82c-1.06,0-2.53.11-2.95,1.28v0c-1.15-.83-3.63.79-4.48,1.54a6.62,6.62,0,0,0-2.31,4.48,11.81,11.81,0,0,0,1.08,5.06,40.81,40.81,0,0,0,11.39,16.34,29.62,29.62,0,0,0,18.37,7.19C316.21,207.34,317.61,201.73,317,196.26Z"/><g id="Group_234" data-name="Group 234"><g id="Group_233" data-name="Group 233"><path id="Path_413" data-name="Path 413" class="cls-4" d="M316.92,212.89a.35.35,0,0,1-.22-.08,26.36,26.36,0,0,1-7.13-11.26,15.1,15.1,0,0,0-4.78-7.46c-10.61-9.19-11.86-15.6-11.91-15.87a.3.3,0,0,1,.24-.35.31.31,0,0,1,.36.24h0c0,.07,1.29,6.49,11.71,15.52a15.59,15.59,0,0,1,4.95,7.72,26,26,0,0,0,7,11,.29.29,0,0,1,0,.42.27.27,0,0,1-.22.09Z"/></g></g><g id="Group_236" data-name="Group 236"><g id="Group_235" data-name="Group 235"><path id="Path_414" data-name="Path 414" class="cls-4" d="M293,198.26h0a.29.29,0,0,1-.3-.3h0c.11-4.74,2.63-13.79,2.74-14.17a.3.3,0,0,1,.37-.21.29.29,0,0,1,.21.37h0c0,.09-2.61,9.36-2.71,14A.31.31,0,0,1,293,198.26Z"/></g></g><g id="Group_238" data-name="Group 238"><g id="Group_237" data-name="Group 237"><path id="Path_415" data-name="Path 415" class="cls-4" d="M310.08,184.15a.27.27,0,0,1-.17-.06c-2.62-1.78-15.32-2.37-15.45-2.38a.3.3,0,0,1-.29-.31h0a.28.28,0,0,1,.27-.3h.05c.53,0,13,.6,15.76,2.48a.31.31,0,0,1,.09.42.3.3,0,0,1-.26.14Z"/></g></g><g id="Group_240" data-name="Group 240"><g id="Group_239" data-name="Group 239"><path id="Path_416" data-name="Path 416" class="cls-4" d="M316.11,195.11a.28.28,0,0,1-.2-.08c-2.93-2.55-12.77-3-12.87-3a.29.29,0,0,1-.29-.31.29.29,0,0,1,.31-.29c.42,0,10.16.42,13.25,3.11a.31.31,0,0,1,0,.43.32.32,0,0,1-.24.11Z"/></g></g><g id="Group_242" data-name="Group 242"><g id="Group_241" data-name="Group 241"><path id="Path_417" data-name="Path 417" class="cls-4" d="M307,210.38a.33.33,0,0,1-.24-.12c-4.55-6,.16-14,.2-14.06a.3.3,0,1,1,.52.31c-.05.08-4.54,7.7-.24,13.38a.3.3,0,0,1,0,.42.26.26,0,0,1-.19.07Z"/></g></g></g></g><path id="element_2" data-name="element 2" class="cls-24" d="M606.05,113.75l2.17,4,4,2.17-4,2.16-2.17,4-2.16-4-4-2.16,4-2.17Zm43.11,102.11-4,2.16,4,2.17,2.17,4,2.16-4,4-2.17-4-2.16-2.16-4ZM541.65,147.29l-9.14,5,9.14,5,5,9.14,5-9.14,9.15-5-9.15-5-5-9.14Z"/><g id="lap"><rect id="Rectangle_19" data-name="Rectangle 19" class="cls-26" x="365.31" y="260.85" width="112.66" height="4.3" rx="1.74"/><g id="Group_244" data-name="Group 244"><path id="Path_418" data-name="Path 418" class="cls-27" d="M476.8,261.54H398.24a3.62,3.62,0,0,1-3.63-3.63,3.79,3.79,0,0,1,.06-.67L409,181.92a3.64,3.64,0,0,1,3.57-3H491.1a3.64,3.64,0,0,1,3.63,3.64,3.79,3.79,0,0,1-.06.67l-14.3,75.32A3.63,3.63,0,0,1,476.8,261.54Z"/><path id="Path_419" data-name="Path 419" class="cls-26" d="M407.93,187.41l-13.26,69.83a3.64,3.64,0,0,0,2.89,4.24,3.82,3.82,0,0,0,.68.06H476.8a3.63,3.63,0,0,0,3.57-3l1-5.21Z"/><path id="Path_420" data-name="Path 420" class="cls-28" d="M450.65,221.94a3.69,3.69,0,1,1-3.69-3.68h0A3.69,3.69,0,0,1,450.65,221.94Z"/></g></g><g id="lap_2" data-name="lap 2"><g id="Group_246" data-name="Group 246"><g id="Group_245" data-name="Group 245"><rect id="Rectangle_20" data-name="Rectangle 20" class="cls-2" x="484.78" y="388.27" width="115.05" height="4.35" rx="1.76"/></g></g><g id="Group_253" data-name="Group 253"><g id="Group_248" data-name="Group 248"><g id="Group_247" data-name="Group 247"><path id="Path_421" data-name="Path 421" class="cls-29" d="M571.45,392.83H487.27a3.09,3.09,0,0,1-2.91-2l-25.19-68a3.1,3.1,0,0,1,1.84-4,3,3,0,0,1,1.07-.2h84.18a3.1,3.1,0,0,1,2.91,2l25.19,68a3.1,3.1,0,0,1-1.83,4A3.07,3.07,0,0,1,571.45,392.83Z"/></g></g><g id="Group_250" data-name="Group 250"><g id="Group_249" data-name="Group 249"><path id="Path_422" data-name="Path 422" class="cls-2" d="M569.33,392.83,461.49,329.06l22.87,61.75a3.11,3.11,0,0,0,2.91,2Z"/></g></g><g id="Group_252" data-name="Group 252" class="cls-30"><g id="Group_251" data-name="Group 251"><path id="Path_423" data-name="Path 423" class="cls-9" d="M519.28,362.15a3.41,3.41,0,1,1-3.4-3.4h0A3.4,3.4,0,0,1,519.28,362.15Z"/></g></g></g></g><g id="coffee"><g id="Group_254" data-name="Group 254"><path id="Path_424" data-name="Path 424" class="cls-29" d="M524.28,483.79H500.81a2.19,2.19,0,0,1-2.18-2.05l-3-46a2.18,2.18,0,0,1,2-2.32h29.63a2.19,2.19,0,0,1,2.19,2.19v.14l-3,46A2.19,2.19,0,0,1,524.28,483.79Z"/></g><g id="Group_255" data-name="Group 255"><path id="Path_425" data-name="Path 425" class="cls-31" d="M497.57,466.81h29.79l1-14.71H496.6Z"/></g><g id="Group_258" data-name="Group 258"><g id="Group_256" data-name="Group 256"><path id="Path_426" data-name="Path 426" class="cls-32" d="M510.39,459.66c-1,2.16-.77,4.36.46,4.92s3-.74,4-2.9.78-4.36-.46-4.92S511.37,457.49,510.39,459.66Z"/></g><g id="Group_257" data-name="Group 257"><path id="Path_427" data-name="Path 427" class="cls-23" d="M511.4,463.54a.26.26,0,0,1-.25-.26.2.2,0,0,1,0-.11l2.61-5.68a.26.26,0,0,1,.46.22l-2.61,5.68A.25.25,0,0,1,511.4,463.54Z"/></g></g><g id="Group_259" data-name="Group 259"><path id="Path_428" data-name="Path 428" class="cls-2" d="M529.91,436.88H495.19a1.34,1.34,0,0,1-1.34-1.33,1.39,1.39,0,0,1,.1-.5l2.22-5.47a1.32,1.32,0,0,1,1.23-.84h30.29a1.32,1.32,0,0,1,1.23.84l2.22,5.47a1.33,1.33,0,0,1-.73,1.73A1.24,1.24,0,0,1,529.91,436.88Z"/></g></g><g id="Group_265" data-name="Group 265"><g id="Group_260" data-name="Group 260"><rect id="Rectangle_21" data-name="Rectangle 21" class="cls-33" x="321.38" y="482.9" width="107.62" height="4.07" rx="1.65"/></g><g id="Group_264" data-name="Group 264"><g id="Group_261" data-name="Group 261"><path id="Path_429" data-name="Path 429" class="cls-34" d="M347.92,487.17h78.75a2.9,2.9,0,0,0,2.72-1.89L453,421.65a2.9,2.9,0,0,0-1.72-3.72,2.85,2.85,0,0,0-1-.18H371.49a2.9,2.9,0,0,0-2.72,1.89l-23.56,63.62a2.9,2.9,0,0,0,1.71,3.73A2.85,2.85,0,0,0,347.92,487.17Z"/></g><g id="Group_262" data-name="Group 262"><path id="Path_430" data-name="Path 430" class="cls-35" d="M349.9,487.17l100.88-59.66-21.39,57.77a2.89,2.89,0,0,1-2.72,1.89Z"/></g><g id="Group_263" data-name="Group 263" class="cls-30"><path id="Path_431" data-name="Path 431" class="cls-9" d="M394.67,458.47a5.24,5.24,0,1,0,5.24-5.24,5.25,5.25,0,0,0-5.24,5.24Z"/></g></g></g></g></g></g></g></svg>