<svg xmlns="http://www.w3.org/2000/svg" enable-background="new 0 0 512 512" viewBox="0 0 512 512" id="recruitment"><path fill="#ffcd7e" d="M188.35,344.929L62.607,487.337c-10.622,12.03-29.19,12.606-40.537,1.258l0,0
			c-11.348-11.348-10.771-29.916,1.259-40.537l142.409-125.742c6.343-5.601,15.948-5.303,21.932,0.681l0,0
			C193.653,328.98,193.951,338.586,188.35,344.929z"></path><ellipse cx="329.227" cy="181.41" fill="#fff" rx="166.115" ry="166.116" transform="rotate(-76.592 329.218 181.397)"></ellipse><path fill="#ffcd7e" d="M349.529,164.268v10.993c0,11.213-9.09,20.303-20.303,20.303h0
			c-11.213,0-20.303-9.09-20.303-20.303v-10.993c0-11.213,9.09-20.303,20.303-20.303h0
			C340.44,143.966,349.529,153.055,349.529,164.268z"></path><path fill="#43c3ff" d="M378.982,265.884c-33.17,15.72-66.341,15.72-99.511,0c0-27.497,22.287-49.785,49.727-49.785
			C356.695,216.099,378.982,238.386,378.982,265.884z"></path><path fill="#ffcd7e" d="M424.774,122.251v7.806c0,7.961-6.454,14.415-14.415,14.415h0c-7.961,0-14.415-6.454-14.415-14.415
			v-7.806c0-7.961,6.454-14.415,14.415-14.415h0C418.32,107.836,424.774,114.29,424.774,122.251z"></path><path fill="#4de2c9" d="M443.562,196.58c-22.135,10.49-44.271,10.49-66.406,0c0-18.35,14.873-33.222,33.184-33.222
			C428.689,163.358,443.562,178.23,443.562,196.58z"></path><path fill="#ffcd7e" d="M262.51,122.251v7.806c0,7.961-6.454,14.415-14.415,14.415h0c-7.961,0-14.415-6.454-14.415-14.415
			v-7.806c0-7.961,6.454-14.415,14.415-14.415h0C256.056,107.836,262.51,114.29,262.51,122.251z"></path><path fill="#4de2c9" d="M281.298,196.58c-22.135,10.49-44.271,10.49-66.406,0c0-18.35,14.873-33.222,33.184-33.222
			C266.425,163.358,281.298,178.23,281.298,196.58z"></path><path fill="#ff787d" d="M498.068,337.055c0,30.494-24.722,55.216-55.216,55.216c-30.59,0-55.313-24.722-55.313-55.216
			c0-30.59,24.722-55.313,55.313-55.313C473.346,281.742,498.068,306.464,498.068,337.055z"></path><path fill="#33226e" d="M329.224 203.417c15.529 0 28.16-12.631 28.16-28.156v-10.993c0-15.525-12.631-28.156-28.16-28.156-15.522 0-28.152 12.631-28.152 28.156v10.993C301.072 190.787 313.703 203.417 329.224 203.417zM316.778 164.268c0-6.864 5.583-12.45 12.446-12.45s12.454 5.587 12.454 12.45v10.993c0 6.864-5.591 12.45-12.454 12.45s-12.446-5.587-12.446-12.45V164.268zM382.346 272.981c2.738-1.3 4.486-4.064 4.486-7.097 0-31.783-25.852-57.639-57.631-57.639-31.749 0-57.585 25.855-57.585 57.639 0 3.033 1.748 5.798 4.486 7.097C311.351 289.678 347.088 289.689 382.346 272.981zM329.201 223.95c21.442 0 39.18 16.189 41.634 36.99-27.945 11.925-55.277 11.925-83.222 0C290.06 240.139 307.782 223.95 329.201 223.95zM410.36 152.324c12.278 0 22.27-9.989 22.27-22.266v-7.807c0-12.278-9.992-22.266-22.27-22.266-12.278 0-22.27 9.989-22.27 22.266v7.807C388.09 142.335 398.082 152.324 410.36 152.324zM403.796 122.251c0-3.616 2.945-6.561 6.565-6.561 3.62 0 6.564 2.945 6.564 6.561v7.807c0 3.616-2.945 6.561-6.564 6.561-3.62 0-6.565-2.945-6.565-6.561V122.251zM373.795 203.678c23.881 11.314 48.475 11.681 73.13 0 2.738-1.3 4.486-4.064 4.486-7.097 0-22.65-18.428-41.074-41.074-41.074-22.631 0-41.036 18.424-41.036 41.074C369.301 199.613 371.05 202.378 373.795 203.678zM410.337 171.212c12.301 0 22.585 8.8 24.885 20.437-16.695 6.626-33.053 6.618-49.732 0C387.783 180.012 398.052 171.212 410.337 171.212zM248.096 152.324c12.282 0 22.27-9.989 22.27-22.266v-7.807c0-12.278-9.989-22.266-22.27-22.266s-22.27 9.989-22.27 22.266v7.807C225.826 142.335 235.814 152.324 248.096 152.324zM241.531 122.251c0-3.616 2.945-6.561 6.564-6.561s6.564 2.945 6.564 6.561v7.807c0 3.616-2.945 6.561-6.564 6.561s-6.564-2.945-6.564-6.561V122.251zM289.147 196.58c0-22.65-18.42-41.074-41.07-41.074-22.631 0-41.04 18.424-41.04 41.074 0 3.033 1.748 5.798 4.49 7.097 23.882 11.315 48.48 11.68 73.134 0C287.399 202.378 289.147 199.613 289.147 196.58zM223.222 191.649c2.301-11.637 12.569-20.437 24.855-20.437 12.301 0 22.581 8.8 24.881 20.437C256.279 198.283 239.917 198.279 223.222 191.649z"></path><path fill="#33226e" d="M471.566,280.884c47.417-67.811,41.169-161.992-19.326-222.488
				c-67.974-67.982-178.042-67.993-246.027,0c-65.957,65.957-67.583,172.015-5.271,240.193l-14.293,14.293
				c-8.419-4.025-18.746-2.943-26.111,3.546L18.128,442.174c-15.399,13.599-16.148,37.438-1.61,51.975
				c14.582,14.582,38.405,13.761,51.975-1.614l125.742-142.406c6.509-7.369,7.584-17.718,3.529-26.152l14.273-14.273
				c45.187,41.355,108.412,56.468,168.573,37.682c4.963,29.865,30.945,52.735,62.244,52.735c34.778,0,63.068-28.294,63.068-63.068
				C505.921,312.586,491.931,291.37,471.566,280.884z M182.463,339.73L56.721,482.14c-7.359,8.331-20.602,9.394-29.099,0.905
				c-8.087-8.095-7.805-21.405,0.905-29.099L170.932,328.2c3.214-2.831,8.135-2.705,11.181,0.349
				C185.158,331.594,185.311,336.505,182.463,339.73z M217.317,293.319c-61.707-61.707-61.707-162.111,0-223.818
				c61.845-61.845,161.958-61.851,223.818,0c56.061,56.065,60.969,143.962,15.156,205.866c-4.335-0.947-8.824-1.477-13.439-1.477
				c-32.814,0-59.841,25.154-62.865,57.187C321.703,350.958,259.479,335.481,217.317,293.319z M442.853,384.416
				c-26.174,0-47.462-21.246-47.462-47.363c0-26.17,21.289-47.458,47.462-47.458c26.112,0,47.363,21.289,47.363,47.458
				C490.215,363.17,468.965,384.416,442.853,384.416z"></path><path fill="#33226e" d="M453.313,320.021l-17.316,17.316l-3.704-3.7c-3.068-3.068-8.037-3.068-11.104,0
				c-3.068,3.068-3.068,8.041,0,11.104l9.256,9.252c3.067,3.067,8.037,3.068,11.104,0l22.868-22.868
				c3.068-3.068,3.068-8.037,0-11.104C461.35,316.954,456.381,316.954,453.313,320.021z"></path></svg>