<svg xmlns="http://www.w3.org/2000/svg" enable-background="new 0 0 64 64" viewBox="0 0 64 64" id="search-folder"><circle cx="32" cy="32" r="32" fill="#ff576b"></circle><rect width="2.38" height="6.24" x="24.33" y="35.4" fill="#20495e" transform="rotate(43.73 25.512 38.52)"></rect><path fill="#4bc8f1" d="M26.07,41.91c-0.07,0.22-0.2,0.44-0.37,0.62l-9.55,9.99c-0.59,0.62-1.57,0.64-2.19,0.05l-1.97-1.88
			c-0.12-0.12-0.22-0.25-0.3-0.4c-0.3-0.57-0.22-1.29,0.25-1.79l9.55-9.99c0.59-0.62,1.58-0.63,2.2-0.05l1.96,1.88
			C26.08,40.75,26.23,41.36,26.07,41.91z"></path><g><path fill="#4bc8f1" d="M48.32,36.44c-5.74,6-15.27,6.21-21.27,0.47c-6-5.74-6.21-15.27-0.47-21.27c5.74-6,15.27-6.21,21.27-0.47
			C53.85,20.92,54.06,30.44,48.32,36.44z"></path><path fill="#ebf0f3" d="M46.74,33.61c-0.19,0.24-0.41,0.49-0.63,0.72c-2.28,2.39-5.31,3.63-8.38,3.71l-0.85-0.01
					c-2.79-0.14-5.55-1.23-7.73-3.32c-0.36-0.35-0.7-0.71-1-1.1c-3.79-4.62-3.6-11.44,0.63-15.86c4.57-4.79,12.17-4.95,16.96-0.38
					C50.3,21.73,50.67,28.81,46.74,33.61z"></path><rect width="5.31" height="4.42" x="34.79" y="26.75" fill="#f8ba8e"></rect><path fill="#303030" d="M46.74,33.61c-0.19,0.24-0.41,0.49-0.63,0.72c-2.28,2.39-5.31,3.63-8.38,3.71l-0.85-0.01
					c-2.79-0.14-5.55-1.23-7.73-3.32c-0.36-0.35-0.7-0.71-1-1.1c0.69-1.88,2.49-3.19,4.57-3.19l9.45,0.01
					C44.26,30.43,46.05,31.74,46.74,33.61z"></path><polygon fill="#fff" points="40.72 30.42 40.72 30.42 37.49 36.16 34.17 30.42 34.17 30.42 34.79 29.7 37.45 30.39 40.11 29.7"></polygon><polygon fill="#e54c3c" points="38.94 33.83 37.44 35.52 35.95 33.83 36.56 31.09 37.45 30.39 38.34 31.09"></polygon><polygon fill="#484848" points="37.48 38.03 34.37 34.6 34.81 33.24 33.62 33.24 33.34 30.42 34.18 30.42 37.44 35.52 40.73 30.42 40.73 30.42 40.73 30.42 41.56 30.43 41.34 33.24 40.17 33.24 40.6 34.6"></polygon><path fill="#faad6e" d="M40.1,26.76l0,1.86c-0.38,0.25-0.79,0.45-1.22,0.6c-0.91,0.31-1.9,0.31-2.81,0
					c-0.45-0.16-0.88-0.37-1.28-0.64l0-1.84l2.69,0.65L40.1,26.76z"></path><path fill="#f8ba8e" d="M37.38,29.07L37.38,29.07c-2.44,0-4.41-2.46-4.41-4.9l0.13-5.8l8.83,0.01l-0.13,5.8
					C41.8,26.61,39.82,29.07,37.38,29.07z"></path><path fill="#303030" d="M35.4,19.51l-0.46-0.04c-0.35-0.03-0.69,0.07-0.96,0.29l-0.09,0.07c-0.57,0.47-0.87,1.15-0.87,1.89
					L33,23.04c0,0-1.23-0.52-0.91-4.57c0,0,0.25-2.82,4.6-2.61c0.09,0,0.17,0,0.26-0.01c0.78-0.11,5.02-0.61,4.34,1.45
					c0,0,1.52,0.32,1.56,2.45c0,0,0.2,2.68-1.02,4.16l0-1.02c0-0.09,0.01-0.18,0.03-0.27c0,0-0.05-4.12-2.34-3.03l-1.18,0.57
					l-0.02-0.37c-0.01-0.16-0.12-0.3-0.28-0.34C37.59,19.32,36.62,19.16,35.4,19.51z"></path></g></svg>