<svg xmlns="http://www.w3.org/2000/svg" data-name="Layer 1" viewBox="0 0 64 64" id="training"><rect width="52" height="34" x="2" y="2" fill="#ffec5f" opacity=".5"></rect><path fill="#7d8589" d="M47,38V36A10,10,0,0,1,57,26h0a4,4,0,0,1,4,4v8"></path><path fill="#fbc9c3" d="M52.65,32l-.6,2H45a2,2,0,0,0-2,2h0a2,2,0,0,0,2,2H55.67L57,32.89A2.37,2.37,0,0,0,54.81,30h0A2.27,2.27,0,0,0,52.65,32Z"></path><path fill="#a967aa" d="M49,18h0a2,2,0,0,1-2-2h0a2,2,0,0,1,2-2H60a2,2,0,0,1,2,2v6.65a2,2,0,0,1-1.26,1.85L57,26"></path><path fill="#fbc9c3" d="M57,21V18H49v4a4,4,0,0,0,4,4h4V23a1,1,0,0,0,0-2Z"></path><path fill="#7d8589" d="M14,62a6,6,0,0,1,12,0"></path><path fill="#7d8589" d="M26,62a6,6,0,0,1,12,0" opacity=".5"></path><path fill="#7d8589" d="M38,62a6,6,0,0,1,12,0"></path><path fill="#7d8589" d="M50 62a6 6 0 0 1 12 0M2 62a6 6 0 0 1 12 0" opacity=".5"></path><circle cx="20" cy="52" r="3" fill="#fbc9c3"></circle><circle cx="32" cy="52" r="3" fill="#fbc9c3"></circle><circle cx="44" cy="52" r="3" fill="#fbc9c3"></circle><circle cx="56" cy="52" r="3" fill="#fbc9c3"></circle><circle cx="8" cy="52" r="3" fill="#fbc9c3"></circle><rect width="30" height="2" x="7" y="7" fill="#7d8589"></rect><rect width="30" height="2" x="7" y="13" fill="#7d8589"></rect><rect width="30" height="2" x="7" y="19" fill="#7d8589"></rect><rect width="30" height="2" x="7" y="25" fill="#7d8589"></rect></svg>